<svg width="369" height="459" viewBox="0 0 369 459" fill="none" xmlns="http://www.w3.org/2000/svg">
<path d="M75 194L75 321.5" stroke="#6F0E0E" stroke-width="5"/>
<path fill-rule="evenodd" clip-rule="evenodd" d="M76.1286 34C121.605 7.91098 177.244 1.34776 320.629 1C319.129 39 347.629 54.5 368.128 53V229C334.111 229.872 320.37 253.249 320.629 280C273.58 280.026 233.293 281.835 199.129 285.468C198.863 285.497 198.598 285.525 198.333 285.553L198.098 285.579C140.791 291.758 100.817 303.113 75.1285 319.852L76.1286 34ZM39.0785 404.096C11.807 369.989 2.41455 321.319 1.12859 261C-1.52847 136.368 37.4898 57.5263 72.1096 36.5L71.1285 322.585C43.3488 342.488 34.175 369.616 39.0785 404.096ZM216.5 182C242.734 182 264 160.734 264 134.5C264 108.266 242.734 87 216.5 87C190.266 87 169 108.266 169 134.5C169 160.734 190.266 182 216.5 182Z" fill="#A50000"/>
<path d="M320.629 1L321.128 1.01972L321.149 0.498737L320.627 0.500001L320.629 1ZM76.1286 34L75.8798 33.5663L75.6296 33.7098L75.6286 33.9982L76.1286 34ZM368.128 53H368.628V52.4621L368.092 52.5013L368.128 53ZM368.128 229L368.141 229.5L368.628 229.487V229H368.128ZM320.629 280L320.629 280.5L321.133 280.5L321.129 279.995L320.629 280ZM199.129 285.468L199.076 284.971H199.076L199.129 285.468ZM198.333 285.553L198.279 285.056H198.279L198.333 285.553ZM198.098 285.579L198.044 285.082H198.044L198.098 285.579ZM75.1285 319.852L74.6285 319.851L74.6253 320.777L75.4015 320.271L75.1285 319.852ZM1.12859 261L0.628701 261.011L1.12859 261ZM39.0785 404.096L38.688 404.409L39.8313 405.838L39.5735 404.026L39.0785 404.096ZM72.1096 36.5L72.6096 36.5017L72.6127 35.6095L71.8501 36.0726L72.1096 36.5ZM71.1285 322.585L71.4198 322.991L71.6277 322.842L71.6285 322.586L71.1285 322.585ZM39.0785 404.096L39.469 403.784L39.0785 404.096ZM320.627 0.500001C177.268 0.847701 121.49 7.40038 75.8798 33.5663L76.3774 34.4337C121.72 8.42159 177.22 1.84782 320.63 1.5L320.627 0.500001ZM368.092 52.5013C357.972 53.2418 345.856 49.7836 336.461 41.4387C327.08 33.1069 320.384 19.8797 321.128 1.01972L320.129 0.980279C319.373 20.1203 326.178 33.6431 335.797 42.1863C345.401 50.7164 357.785 54.2582 368.165 53.4987L368.092 52.5013ZM368.628 229V53H367.628V229H368.628ZM321.129 279.995C321 266.7 324.351 254.294 331.911 245.113C339.46 235.945 351.254 229.933 368.141 229.5L368.116 228.5C350.985 228.939 338.9 235.052 331.139 244.478C323.388 253.891 319.998 266.549 320.129 280.005L321.129 279.995ZM199.182 285.966C233.323 282.334 273.592 280.526 320.629 280.5L320.628 279.5C273.568 279.526 233.263 281.335 199.076 284.971L199.182 285.966ZM198.386 286.051C198.651 286.022 198.916 285.994 199.182 285.966L199.076 284.971C198.81 284.999 198.545 285.028 198.279 285.056L198.386 286.051ZM198.151 286.076L198.386 286.051L198.279 285.056L198.044 285.082L198.151 286.076ZM75.4015 320.271C100.99 303.597 140.869 292.253 198.151 286.076L198.044 285.082C140.713 291.264 100.644 302.629 74.8556 319.433L75.4015 320.271ZM75.6286 33.9982L74.6285 319.851L75.6285 319.854L76.6286 34.0018L75.6286 33.9982ZM0.628701 261.011C1.91517 321.354 11.3087 370.166 38.688 404.409L39.469 403.784C12.3053 369.811 2.91393 321.285 1.62847 260.989L0.628701 261.011ZM71.8501 36.0726C54.3989 46.6716 35.9368 71.7637 22.1702 109.727C8.39639 147.711 -0.700952 198.642 0.628701 261.011L1.62847 260.989C0.301066 198.726 9.38432 147.92 23.1103 110.068C36.8435 72.1967 55.2006 47.3547 72.3692 36.9274L71.8501 36.0726ZM71.6285 322.586L72.6096 36.5017L71.6096 36.4983L70.6285 322.583L71.6285 322.586ZM39.5735 404.026C37.1303 386.846 38.1992 371.533 43.3148 358.052C48.4287 344.575 57.5998 332.893 71.4198 322.991L70.8373 322.178C56.8775 332.18 47.5719 344.014 42.3798 357.697C37.1895 371.375 36.1232 386.867 38.5835 404.167L39.5735 404.026ZM263.5 134.5C263.5 160.457 242.457 181.5 216.5 181.5V182.5C243.01 182.5 264.5 161.01 264.5 134.5H263.5ZM216.5 87.5C242.457 87.5 263.5 108.543 263.5 134.5H264.5C264.5 107.99 243.01 86.5 216.5 86.5V87.5ZM169.5 134.5C169.5 108.543 190.543 87.5 216.5 87.5V86.5C189.99 86.5 168.5 107.99 168.5 134.5H169.5ZM216.5 181.5C190.543 181.5 169.5 160.457 169.5 134.5H168.5C168.5 161.01 189.99 182.5 216.5 182.5V181.5ZM71.4198 322.991C72.7064 322.069 74.0335 321.163 75.4015 320.271L74.8556 319.433C73.4755 320.333 72.1363 321.248 70.8373 322.178L71.4198 322.991ZM198.151 286.076C215.322 284.224 245.937 282.83 272.275 281.899C285.44 281.433 297.532 281.083 306.332 280.85C310.732 280.733 314.309 280.646 316.786 280.587C318.024 280.558 318.988 280.536 319.641 280.522C319.968 280.514 320.218 280.509 320.386 280.505C320.469 280.504 320.533 280.502 320.575 280.501C320.597 280.501 320.613 280.5 320.623 280.5C320.629 280.5 320.633 280.5 320.635 280.5C320.637 280.5 320.638 280.5 320.638 280.5C320.639 280.5 320.639 280.5 320.629 280C320.618 279.5 320.618 279.5 320.617 279.5C320.616 279.5 320.615 279.5 320.614 279.5C320.611 279.5 320.607 279.5 320.602 279.5C320.591 279.501 320.575 279.501 320.554 279.501C320.511 279.502 320.448 279.504 320.364 279.506C320.196 279.509 319.946 279.515 319.619 279.522C318.965 279.537 318.001 279.559 316.762 279.588C314.284 279.646 310.706 279.734 306.305 279.85C297.503 280.084 285.409 280.434 272.24 280.899C245.908 281.831 215.257 283.226 198.044 285.082L198.151 286.076ZM38.688 404.409C61.7807 433.29 97.6091 451.735 151.942 458.058L152.058 457.064C97.9014 450.762 62.3505 432.401 39.469 403.784L38.688 404.409ZM0.628701 261.011C1.91517 321.354 11.3087 370.166 38.688 404.409L39.469 403.784C12.3053 369.811 2.91393 321.285 1.62847 260.989L0.628701 261.011Z" fill="#A50000"/>
<path d="M73 36L72 323.5" stroke="#7D0F0F" stroke-width="2"/>
<path d="M199.243 313.923V286C198.899 286.036 198.555 286.073 198.212 286.11C140.929 292.265 100.971 303.576 75.293 320.251C73.9195 321.143 72.5869 322.05 71.2946 322.973C43.5261 342.799 34.356 369.822 39.2575 404.169C68.4993 338.29 105.838 320.564 199.243 313.923Z" fill="#6F0E0E"/>
<path d="M199.243 313.923C105.838 320.564 68.4993 338.29 39.2575 404.169C62.2805 432.863 98.8081 451.747 153.211 458C153.211 424.5 169.704 407.068 200 407.068L199.243 313.923Z" fill="#7D0F0F"/>
<path d="M199.243 313.923V286C198.899 286.036 198.555 286.073 198.212 286.11C140.929 292.265 100.971 303.576 75.293 320.251C73.9195 321.143 72.5869 322.05 71.2946 322.973C43.5261 342.799 34.356 369.822 39.2575 404.169M199.243 313.923C105.838 320.564 68.4993 338.29 39.2575 404.169M199.243 313.923L200 407.068C169.704 407.068 153.211 424.5 153.211 458C98.8081 451.747 62.2805 432.863 39.2575 404.169" stroke="#6F0E0E"/>
<path d="M70 52L80 47" stroke="#A50000" stroke-width="5"/>
<path d="M70 70L80 65" stroke="#A50000" stroke-width="5"/>
<path d="M69 88L79 83" stroke="#A50000" stroke-width="5"/>
<path d="M69 106L79 101" stroke="#A50000" stroke-width="5"/>
<path d="M68 124L78 119" stroke="#A50000" stroke-width="5"/>
<path d="M68 142L78 137" stroke="#A50000" stroke-width="5"/>
<path d="M68 160L78 155" stroke="#A50000" stroke-width="5"/>
<path d="M68 178L78 173" stroke="#A50000" stroke-width="5"/>
<path d="M68 196L78 191" stroke="#A50000" stroke-width="5"/>
<path d="M68 214L78 209" stroke="#A50000" stroke-width="5"/>
<path d="M68 232L78 227" stroke="#A50000" stroke-width="5"/>
<path d="M68 250L78 245" stroke="#A50000" stroke-width="5"/>
<path d="M68 268L78 263" stroke="#A50000" stroke-width="5"/>
<path d="M68 286L78 281" stroke="#A50000" stroke-width="5"/>
<path d="M68 303L78 298" stroke="#A50000" stroke-width="5"/>
<path fill-rule="evenodd" clip-rule="evenodd" d="M218 87.0232C192.461 87.8155 172 108.768 172 134.5C172 160.232 192.461 181.185 218 181.977C217.502 181.992 217.002 182 216.5 182C190.266 182 169 160.734 169 134.5C169 108.266 190.266 87 216.5 87C217.002 87 217.502 87.0078 218 87.0232Z" fill="#7D0F0F"/>
</svg>
