<svg xmlns="http://www.w3.org/2000/svg" xmlns:xlink="http://www.w3.org/1999/xlink" width="500" zoomAndPan="magnify" viewBox="0 0 375 374.999991" height="500" preserveAspectRatio="xMidYMid meet" version="1.0"><path fill="#a60002" d="M 237.316406 14.578125 C 238.496094 14.582031 239.675781 14.582031 240.855469 14.582031 C 251.257812 14.589844 261.652344 14.691406 272.050781 14.992188 C 278.367188 15.175781 284.671875 15.226562 290.988281 15.164062 C 297.324219 15.117188 297.324219 15.117188 299.824219 15.71875 C 300.761719 16.300781 300.761719 16.300781 301.429688 17.324219 C 301.996094 18.683594 302.523438 20.054688 303.003906 21.441406 C 304.097656 24.464844 305.210938 27.371094 306.789062 30.179688 L 307.425781 31.433594 C 309.523438 35.304688 312.28125 38.363281 315.894531 40.890625 C 322.496094 44.933594 329.148438 46.835938 336.789062 47.851562 C 337.285156 49.339844 337.390625 50.21875 337.394531 51.75 L 337.398438 53.175781 L 337.394531 54.742188 L 337.398438 56.40625 C 337.402344 58.253906 337.402344 60.105469 337.402344 61.953125 L 337.40625 65.917969 C 337.410156 69.144531 337.414062 72.367188 337.414062 75.59375 C 337.414062 78.214844 337.414062 80.835938 337.417969 83.457031 C 337.421875 90.890625 337.421875 98.324219 337.421875 105.757812 L 337.421875 108.191406 C 337.421875 114.691406 337.425781 121.191406 337.433594 127.691406 C 337.441406 134.367188 337.445312 141.042969 337.445312 147.71875 C 337.445312 151.464844 337.449219 155.214844 337.453125 158.960938 C 337.457031 162.488281 337.457031 166.011719 337.453125 169.539062 C 337.453125 170.832031 337.457031 172.125 337.457031 173.417969 C 337.464844 175.1875 337.460938 176.953125 337.457031 178.722656 L 337.464844 180.269531 C 337.449219 183.273438 337.390625 186.414062 336.253906 189.234375 C 334.421875 190.453125 332.699219 190.832031 330.59375 191.308594 C 323.304688 193.0625 317.324219 195.898438 311.664062 200.898438 C 309.03125 203.679688 307.25 206.792969 305.648438 210.253906 L 305.085938 211.464844 C 302.96875 216.132812 301.921875 220.5625 301.429688 225.652344 L 300.894531 226.1875 C 299.605469 226.34375 298.324219 226.46875 297.027344 226.570312 L 295.839844 226.671875 C 294.578125 226.78125 293.316406 226.886719 292.054688 226.992188 L 288.316406 227.304688 C 287.542969 227.371094 286.765625 227.4375 285.992188 227.5 C 284.183594 227.652344 282.398438 227.832031 280.601562 228.066406 C 277.183594 228.445312 273.765625 228.425781 270.328125 228.4375 L 268.078125 228.453125 C 266.054688 228.46875 264.03125 228.480469 262.007812 228.492188 C 259.890625 228.503906 257.769531 228.515625 255.652344 228.53125 C 251.644531 228.558594 247.636719 228.582031 243.632812 228.605469 C 239.066406 228.632812 234.503906 228.660156 229.9375 228.691406 C 220.554688 228.753906 211.171875 228.808594 201.789062 228.863281 C 201.6875 237.335938 201.59375 245.804688 201.5 254.277344 C 201.351562 267.550781 201.226562 280.820312 201.253906 294.097656 C 201.253906 294.585938 201.257812 295.078125 201.257812 295.585938 C 201.265625 300.230469 201.28125 304.875 201.3125 309.519531 C 201.320312 311.195312 201.328125 312.875 201.332031 314.550781 C 201.335938 315.324219 201.339844 316.097656 201.347656 316.867188 C 201.359375 317.910156 201.363281 318.953125 201.363281 319.996094 L 201.378906 321.757812 L 201.253906 323.121094 L 200.179688 324.191406 C 198.773438 324.464844 197.378906 324.691406 195.960938 324.894531 C 188.832031 326.058594 182.445312 329.042969 176.609375 333.296875 C 172.839844 336.566406 170.351562 340.4375 168.574219 345.078125 C 167.136719 349.457031 165.886719 353.921875 164.875 358.417969 L 164.488281 360.140625 L 164.199219 361.582031 C 163.753906 362.75 163.753906 362.75 162.890625 363.613281 C 161.609375 364.355469 161.609375 364.355469 159.871094 364.578125 C 154.136719 364.5625 148.816406 363.753906 143.226562 362.515625 L 141.886719 362.226562 C 128.914062 359.40625 116.851562 354.972656 104.824219 349.363281 L 103.730469 348.863281 C 90.191406 342.699219 77.847656 334.125 67.324219 323.65625 L 66.472656 322.808594 C 60.640625 316.949219 56.839844 310.078125 53.324219 302.675781 C 52.925781 301.839844 52.519531 301.007812 52.109375 300.175781 C 42.6875 279.691406 43.546875 254.945312 43.734375 232.90625 C 43.753906 230.398438 43.769531 227.890625 43.78125 225.382812 C 43.808594 221.183594 43.835938 216.984375 43.871094 212.789062 C 43.90625 207.957031 43.941406 203.128906 43.96875 198.300781 C 44 193.109375 44.035156 187.917969 44.070312 182.722656 L 44.097656 178.292969 C 44.113281 175.964844 44.132812 173.636719 44.152344 171.308594 L 44.167969 168.769531 C 44.21875 160.363281 44.691406 152.046875 45.859375 143.714844 L 46.027344 142.527344 C 48.085938 128.160156 51.140625 111.804688 57.679688 98.726562 L 58.753906 98.726562 L 58.921875 97.332031 C 60.226562 90.851562 65.019531 84.519531 68.394531 78.914062 L 69.0625 77.804688 L 69.714844 76.71875 L 70.351562 75.660156 C 70.761719 74.980469 71.171875 74.300781 71.585938 73.617188 C 72.640625 71.871094 73.652344 70.097656 74.621094 68.304688 C 75.828125 66.097656 77.238281 64.078125 78.699219 62.039062 C 79.609375 60.753906 80.46875 59.449219 81.320312 58.128906 C 82.554688 56.261719 83.90625 54.75 85.539062 53.207031 L 86.710938 51.703125 L 87.679688 50.53125 L 88.753906 50.53125 L 88.753906 49.457031 L 89.824219 49.457031 L 90.226562 48.421875 L 90.894531 47.316406 C 91.605469 47.121094 92.320312 46.945312 93.039062 46.78125 L 93.574219 45.175781 L 94.613281 44.941406 L 95.714844 44.636719 L 96.21875 43.601562 C 96.40625 43.238281 96.59375 42.871094 96.789062 42.496094 L 98.058594 41.996094 L 99.464844 41.425781 L 100.371094 40.152344 C 101.875 38.445312 103.089844 38.027344 105.195312 37.265625 C 107.929688 36.246094 110.597656 35.074219 113.277344 33.925781 C 119.667969 31.210938 126.085938 29.296875 132.816406 27.636719 L 134.230469 27.285156 C 159.441406 21.066406 184.925781 16.789062 210.867188 15.25 C 211.941406 15.183594 213.011719 15.109375 214.082031 15.03125 C 221.820312 14.496094 229.570312 14.566406 237.316406 14.578125 M 193.355469 84.5 L 192.144531 85.339844 L 190.933594 86.09375 C 186.269531 89.273438 183.476562 94.164062 180.914062 99.078125 C 178.152344 104.933594 178.152344 111.191406 178.589844 117.550781 C 179.214844 123.429688 181.835938 128.722656 185.179688 133.539062 C 189.039062 138.757812 194.210938 142.359375 200.113281 144.984375 C 205.675781 146.988281 211.925781 148.0625 217.789062 147.25 C 223.550781 146.164062 228.769531 143.851562 233.445312 140.3125 C 235.621094 138.398438 237.566406 136.414062 239.289062 134.074219 L 239.289062 133.003906 L 240.359375 133.003906 C 241.054688 131.667969 241.75 130.328125 242.433594 128.984375 L 243.027344 127.855469 C 244.324219 125.3125 245.117188 122.941406 245.714844 120.148438 L 246.050781 118.644531 C 246.796875 112.296875 246.363281 105.621094 243.953125 99.667969 C 241.417969 93.847656 238.417969 89.292969 233.339844 85.359375 C 228.917969 82.246094 224.277344 79.820312 218.832031 79.277344 C 216.953125 79.195312 215.085938 79.171875 213.207031 79.179688 L 211.195312 79.1875 C 204.417969 79.316406 199.078125 80.734375 193.355469 84.5 " fill-opacity="1" fill-rule="nonzero"/><path fill="#790e0e" d="M 203.929688 228.328125 L 201.789062 228.863281 C 201.6875 237.335938 201.59375 245.804688 201.5 254.277344 C 201.351562 267.550781 201.226562 280.820312 201.253906 294.097656 C 201.253906 294.585938 201.257812 295.078125 201.257812 295.585938 C 201.265625 300.230469 201.28125 304.875 201.3125 309.519531 C 201.320312 311.195312 201.328125 312.875 201.332031 314.550781 C 201.335938 315.324219 201.339844 316.097656 201.347656 316.867188 C 201.359375 317.910156 201.363281 318.953125 201.363281 319.996094 L 201.378906 321.757812 L 201.253906 323.121094 L 200.179688 324.191406 C 198.773438 324.464844 197.378906 324.691406 195.960938 324.894531 C 188.832031 326.058594 182.445312 329.042969 176.609375 333.296875 C 172.839844 336.566406 170.351562 340.4375 168.574219 345.078125 C 167.136719 349.457031 165.886719 353.921875 164.875 358.417969 L 164.488281 360.140625 L 164.199219 361.582031 C 163.753906 362.75 163.753906 362.75 162.890625 363.613281 C 161.609375 364.355469 161.609375 364.355469 159.871094 364.578125 C 154.136719 364.5625 148.816406 363.753906 143.226562 362.515625 C 142.785156 362.417969 142.34375 362.324219 141.886719 362.226562 C 128.914062 359.40625 116.851562 354.972656 104.824219 349.363281 L 103.730469 348.863281 C 90.109375 342.664062 78.015625 334.039062 67.324219 323.65625 C 68.929688 323.65625 68.929688 323.65625 69.90625 324.125 L 72.679688 325.796875 L 72.144531 324.191406 L 71.074219 323.65625 L 71.074219 321.511719 L 70.003906 321.511719 L 70.003906 304.375 L 71.074219 304.375 L 71.609375 295.808594 L 73.753906 295.808594 C 74.472656 292.335938 75.101562 288.851562 75.644531 285.347656 C 75.894531 284.027344 75.894531 284.027344 76.429688 282.953125 L 78.039062 282.953125 L 78.40625 281.917969 C 79.011719 280.507812 79.667969 279.125 80.382812 277.765625 C 80.597656 277.355469 80.808594 276.945312 81.03125 276.519531 C 81.894531 275.304688 82.601562 275.007812 83.929688 274.386719 L 85.003906 272.777344 C 85.890625 272.238281 86.785156 271.703125 87.679688 271.171875 L 88.214844 270.101562 L 89.824219 270.101562 L 90.894531 266.886719 L 93.039062 266.886719 L 93.039062 265.816406 L 94.644531 265.816406 L 95.714844 263.675781 L 97.324219 263.675781 L 97.324219 261.53125 L 98.394531 261.53125 L 98.328125 259.757812 L 98.394531 257.785156 L 99.464844 256.175781 C 100.976562 255.902344 100.976562 255.902344 102.746094 255.808594 L 104.527344 255.703125 L 105.894531 255.640625 L 105.894531 253.5 C 107.347656 252.773438 108.578125 252.929688 110.179688 252.964844 L 110.179688 250.820312 L 114.464844 249.75 L 114.464844 248.679688 C 116.0625 247.617188 116.910156 247.367188 118.753906 247.039062 C 120.246094 246.769531 121.59375 246.484375 123.039062 246.003906 L 123.039062 244.929688 C 124.488281 244.207031 125.722656 244.359375 127.324219 244.394531 L 127.324219 242.789062 C 130.308594 241.9375 132.792969 241.605469 135.894531 241.71875 L 136.429688 239.039062 C 139.113281 238.335938 141.714844 237.777344 144.464844 237.433594 L 144.464844 235.828125 L 153.039062 235.828125 L 153.039062 233.148438 L 161.609375 233.148438 L 161.609375 232.078125 C 162.535156 231.804688 163.460938 231.539062 164.386719 231.273438 L 165.953125 230.824219 C 167.421875 230.488281 168.679688 230.40625 170.179688 230.472656 L 170.179688 228.863281 C 181.4375 228.441406 192.667969 228.253906 203.929688 228.328125 " fill-opacity="1" fill-rule="nonzero"/><path fill="#940506" d="M 336.789062 49.457031 L 337.324219 49.457031 L 337.324219 184.414062 L 336.789062 184.414062 L 336.789062 150.140625 L 335.179688 150.140625 L 335.183594 151.273438 C 335.195312 154.8125 335.203125 158.347656 335.207031 161.886719 C 335.210938 163.703125 335.214844 165.523438 335.222656 167.339844 C 335.226562 169.433594 335.230469 171.527344 335.234375 173.621094 L 335.242188 175.585938 C 335.242188 178.585938 335.191406 181.460938 334.644531 184.414062 L 334.109375 184.414062 L 334.109375 115.867188 L 335.179688 115.867188 L 335.179688 141.570312 L 336.253906 141.570312 C 336.1875 138.066406 336.121094 134.5625 336.054688 131.058594 L 335.984375 127.496094 C 335.863281 120.75 335.691406 114.027344 335.179688 107.296875 L 334.109375 107.296875 L 334.109375 90.160156 L 336.253906 90.160156 Z M 336.789062 49.457031 " fill-opacity="1" fill-rule="nonzero"/><path fill="#a60002" d="M 221.675781 72.988281 L 223.453125 73.003906 L 224.824219 73.023438 L 224.289062 74.628906 L 223.214844 75.164062 L 223.214844 76.234375 L 230.179688 77.84375 L 230.179688 79.984375 C 227.101562 80.050781 227.101562 80.050781 225.894531 79.449219 L 226.429688 80.519531 C 227.496094 81.023438 228.582031 81.488281 229.679688 81.925781 L 231.472656 82.648438 L 232.859375 83.199219 L 232.859375 84.269531 L 235.539062 84.804688 L 235.539062 85.875 L 236.609375 85.875 L 236.609375 88.015625 C 234.898438 87.226562 233.441406 86.25 231.921875 85.140625 C 228.324219 82.601562 224.933594 80.71875 220.539062 79.984375 C 213.296875 79.414062 205.820312 79.15625 199.007812 81.921875 C 197.195312 82.8125 195.460938 83.730469 193.753906 84.804688 L 192.679688 84.804688 C 193.214844 83.199219 193.214844 83.199219 194.253906 82.125 C 196.160156 80.882812 197.929688 80.378906 200.121094 79.828125 L 201.253906 79.449219 L 201.789062 78.378906 C 203.242188 78.210938 204.648438 78.101562 206.105469 78.042969 L 207.339844 77.980469 C 208.34375 77.929688 209.351562 77.886719 210.359375 77.84375 L 210.359375 76.234375 L 204.464844 76.234375 L 204.464844 75.164062 L 217.324219 74.628906 L 217.324219 73.558594 C 218.804688 72.816406 220.027344 72.972656 221.675781 72.988281 " fill-opacity="1" fill-rule="nonzero"/><path fill="#87080a" d="M 46.429688 141.570312 L 46.964844 141.570312 L 46.964844 151.210938 L 45.894531 151.210938 C 45.472656 198.171875 45.472656 198.171875 45.292969 245.128906 C 45.292969 246.292969 45.289062 247.457031 45.289062 248.621094 C 45.285156 250.730469 45.285156 252.835938 45.289062 254.941406 L 45.285156 256.699219 C 45.300781 261.675781 45.480469 266.648438 46.464844 271.539062 C 47.011719 274.296875 47.074219 276.9375 46.964844 279.742188 L 46.429688 279.742188 C 43.234375 264.394531 43.601562 248.503906 43.734375 232.90625 C 43.753906 230.398438 43.769531 227.890625 43.78125 225.382812 C 43.808594 221.183594 43.835938 216.984375 43.871094 212.789062 C 43.90625 207.957031 43.941406 203.128906 43.96875 198.300781 C 44 193.109375 44.035156 187.917969 44.070312 182.722656 L 44.097656 178.292969 C 44.113281 175.964844 44.132812 173.636719 44.152344 171.308594 L 44.167969 168.769531 C 44.210938 161.269531 44.441406 153.808594 45.660156 146.390625 L 45.886719 144.960938 C 46.066406 143.832031 46.246094 142.699219 46.429688 141.570312 " fill-opacity="1" fill-rule="nonzero"/><path fill="#790e0e" d="M 144.464844 235.828125 L 150.359375 235.828125 L 148.753906 236.363281 L 148.214844 237.96875 L 144.464844 238.503906 L 144.464844 239.574219 L 143.429688 240.042969 L 142.324219 240.648438 L 141.789062 241.71875 L 144.464844 241.71875 L 144.464844 242.789062 L 146.007812 242.753906 C 147.679688 242.789062 147.679688 242.789062 148.753906 243.324219 L 148.753906 244.394531 C 146.007812 244.5625 143.265625 244.726562 140.519531 244.882812 C 139.585938 244.9375 138.65625 244.992188 137.722656 245.046875 C 136.378906 245.128906 135.03125 245.210938 133.683594 245.285156 C 133.273438 245.3125 132.863281 245.335938 132.4375 245.363281 C 129.765625 245.507812 127.292969 245.332031 124.644531 244.929688 L 124.445312 246.203125 L 124.109375 247.609375 L 123.039062 248.679688 C 121.992188 248.769531 120.941406 248.824219 119.890625 248.847656 C 118.164062 248.921875 118.164062 248.921875 116.609375 249.214844 C 115.40625 250.542969 115.40625 250.542969 114.464844 251.894531 C 112.96875 252.136719 111.707031 252.019531 110.179688 251.894531 L 110.179688 250.820312 L 114.464844 249.75 L 114.464844 248.679688 C 116.0625 247.617188 116.910156 247.367188 118.753906 247.039062 C 120.246094 246.769531 121.59375 246.484375 123.039062 246.003906 L 123.039062 244.929688 C 124.488281 244.207031 125.722656 244.359375 127.324219 244.394531 L 127.324219 242.789062 C 130.308594 241.9375 132.792969 241.605469 135.894531 241.71875 L 136.429688 239.039062 C 139.113281 238.335938 141.714844 237.777344 144.464844 237.433594 Z M 144.464844 235.828125 " fill-opacity="1" fill-rule="nonzero"/><path fill="#701313" d="M 200.179688 278.671875 L 200.714844 278.671875 C 201.269531 280.941406 201.332031 283.144531 201.328125 285.46875 L 201.335938 286.699219 C 201.339844 288.035156 201.34375 289.371094 201.34375 290.707031 L 201.347656 293.5 C 201.351562 295.445312 201.351562 297.390625 201.351562 299.339844 C 201.351562 301.835938 201.359375 304.332031 201.367188 306.832031 C 201.375 308.75 201.375 310.667969 201.375 312.589844 C 201.375 313.507812 201.378906 314.429688 201.382812 315.351562 C 201.386719 316.636719 201.386719 317.921875 201.382812 319.207031 C 201.386719 319.589844 201.386719 319.972656 201.390625 320.367188 C 201.386719 321.285156 201.324219 322.203125 201.253906 323.121094 L 200.179688 324.191406 C 198.773438 324.464844 197.378906 324.691406 195.960938 324.894531 C 191.886719 325.535156 188.390625 326.722656 184.644531 328.476562 L 183.039062 329.011719 L 183.039062 327.941406 C 184.714844 326.261719 186.753906 325.769531 188.96875 325.125 L 190.003906 324.726562 L 190.539062 323.65625 L 188.835938 323.59375 C 188.097656 323.558594 187.359375 323.523438 186.621094 323.488281 L 185.5 323.453125 C 184.496094 323.398438 183.496094 323.261719 182.503906 323.121094 L 180.894531 321.511719 L 195.894531 320.976562 L 195.894531 323.121094 L 199.644531 322.585938 Z M 200.179688 278.671875 " fill-opacity="1" fill-rule="nonzero"/><path fill="#87080a" d="M 176.609375 107.296875 L 178.753906 107.296875 L 178.757812 108.25 C 178.859375 116.527344 179.6875 123.144531 183.742188 130.527344 C 187.335938 136.257812 191.59375 139.988281 197.503906 143.179688 C 199.261719 143.996094 201.019531 144.714844 202.859375 145.320312 L 202.859375 145.855469 C 200.410156 145.5625 198.210938 145.097656 195.894531 144.25 L 195.359375 145.855469 L 194.289062 145.855469 L 194.289062 143.714844 L 193.214844 143.714844 L 193.214844 142.644531 C 192.089844 141.308594 191.195312 140.558594 189.601562 139.832031 L 188.394531 139.429688 L 188.394531 138.359375 L 187.324219 138.359375 L 187.324219 136.75 L 186.117188 136.785156 L 184.644531 136.214844 C 183.710938 134.691406 183.058594 133.09375 182.503906 131.394531 L 182.503906 130.324219 L 180.894531 129.789062 C 179.089844 127.222656 178.414062 124.972656 177.945312 121.882812 C 177.726562 120.539062 177.726562 120.539062 176.609375 119.078125 C 176.488281 117.816406 176.488281 117.816406 176.503906 116.34375 L 176.515625 114.75 L 176.542969 113.085938 L 176.558594 111.40625 C 176.570312 110.035156 176.585938 108.667969 176.609375 107.296875 " fill-opacity="1" fill-rule="nonzero"/><path fill="#a60002" d="M 311.609375 37.675781 L 313.214844 39.015625 C 318.359375 42.867188 324.84375 46.035156 331.21875 46.988281 C 332.359375 47.125 333.5 47.222656 334.644531 47.316406 L 334.644531 47.851562 C 330.78125 48.058594 327.515625 47.636719 323.792969 46.601562 C 321.976562 46.160156 320.429688 46.164062 318.574219 46.246094 L 317.503906 45.710938 L 317.503906 47.316406 L 307.324219 47.316406 L 307.324219 38.210938 L 309.464844 38.746094 L 310.003906 44.636719 L 316.429688 44.636719 L 315.359375 44.101562 L 315.359375 43.03125 L 313.214844 43.03125 L 313.015625 41.460938 L 312.679688 39.820312 L 311.609375 39.285156 Z M 311.609375 37.675781 " fill-opacity="1" fill-rule="nonzero"/><path fill="#87080a" d="M 199.109375 252.964844 L 200.714844 252.964844 C 200.773438 267.253906 200.785156 281.527344 200.179688 295.808594 L 199.109375 295.808594 L 199.109375 287.238281 L 197.503906 287.238281 L 197.503906 278.671875 L 199.109375 278.671875 Z M 195.894531 228.328125 L 195.894531 229.398438 L 187.324219 229.398438 L 187.324219 231.007812 L 164.824219 232.078125 L 164.824219 233.683594 C 162.890625 234.652344 160.507812 234.417969 158.363281 234.496094 C 156.734375 234.578125 155.355469 234.683594 153.835938 235.308594 L 153.039062 235.828125 L 153.039062 233.148438 L 161.609375 233.148438 L 161.609375 232.078125 C 162.535156 231.804688 163.460938 231.539062 164.386719 231.273438 L 165.953125 230.824219 C 167.421875 230.488281 168.679688 230.40625 170.179688 230.472656 L 170.179688 228.863281 C 172.464844 228.785156 174.75 228.710938 177.035156 228.636719 C 177.808594 228.609375 178.578125 228.585938 179.351562 228.558594 C 184.867188 228.371094 190.378906 228.292969 195.894531 228.328125 " fill-opacity="1" fill-rule="nonzero"/><path fill="#a60002" d="M 110.179688 35.535156 L 110.179688 37.140625 L 108.539062 37.84375 L 107.507812 38.296875 C 106.5 38.71875 105.460938 39.070312 104.421875 39.417969 L 102.679688 40.355469 C 101.28125 42.78125 100.820312 45.082031 100.539062 47.851562 L 98.394531 47.851562 L 98.394531 44.101562 L 96.253906 44.101562 L 96.117188 45.039062 C 95.714844 46.246094 95.714844 46.246094 94.644531 47.28125 C 93.5 48.300781 93.5 48.300781 93.171875 49.625 C 93.003906 51.152344 93.003906 51.152344 93.070312 53.039062 L 93.039062 54.8125 L 91.964844 55.886719 C 90.023438 55.953125 90.023438 55.953125 88.214844 55.886719 L 89.253906 55.417969 L 90.359375 54.8125 L 90.894531 53.742188 L 91.964844 53.742188 L 91.964844 51.066406 L 88.753906 52.136719 L 88.214844 54.8125 L 86.910156 55.015625 L 85.539062 55.347656 L 85.003906 56.421875 L 83.929688 55.347656 C 84.53125 54.542969 85.132812 53.738281 85.738281 52.941406 L 86.753906 51.585938 L 87.679688 50.53125 L 88.753906 50.53125 L 88.753906 49.457031 L 89.824219 49.457031 L 90.226562 48.421875 L 90.894531 47.316406 C 91.605469 47.121094 92.320312 46.945312 93.039062 46.78125 L 93.574219 45.175781 L 94.613281 44.941406 L 95.714844 44.636719 L 96.21875 43.601562 C 96.40625 43.238281 96.59375 42.871094 96.789062 42.496094 L 98.058594 41.996094 L 99.464844 41.425781 L 100.371094 40.152344 C 101.9375 38.375 103.460938 37.871094 105.660156 37.085938 C 106.964844 36.636719 106.964844 36.636719 108.136719 36.007812 C 109.109375 35.535156 109.109375 35.535156 110.179688 35.535156 " fill-opacity="1" fill-rule="nonzero"/><path fill="#87080a" d="M 221.609375 15.183594 L 221.609375 15.71875 L 220.105469 15.800781 C 218.242188 15.902344 216.382812 16.007812 214.519531 16.117188 C 213.71875 16.164062 212.914062 16.210938 212.113281 16.253906 C 210.953125 16.316406 209.792969 16.382812 208.636719 16.453125 L 206.527344 16.570312 C 204.65625 16.769531 202.992188 17.136719 201.1875 17.621094 C 199.785156 17.957031 198.421875 18.042969 196.984375 18.105469 L 195.175781 18.199219 L 193.25 18.296875 C 187.164062 18.65625 181.191406 19.335938 175.167969 20.273438 L 174.039062 20.445312 C 170.234375 21.039062 166.445312 21.675781 162.683594 22.488281 C 161.242188 22.746094 159.851562 22.757812 158.394531 22.679688 L 158.394531 23.753906 L 157.324219 23.753906 L 157.324219 24.824219 L 144.464844 25.359375 L 144.464844 24.824219 C 163.71875 20.542969 183.152344 17.308594 202.824219 15.753906 L 204.042969 15.65625 C 209.902344 15.199219 215.730469 15.117188 221.609375 15.183594 " fill-opacity="1" fill-rule="nonzero"/><path fill="#940506" d="M 310.003906 197.804688 L 310.539062 198.875 L 313.753906 198.339844 L 313.144531 199.027344 L 312.3125 199.980469 L 311.503906 200.902344 C 309.113281 203.839844 307.238281 206.816406 305.648438 210.253906 L 305.085938 211.464844 C 302.96875 216.132812 301.921875 220.5625 301.429688 225.652344 L 300.894531 226.1875 C 300.097656 226.269531 299.296875 226.320312 298.5 226.355469 L 297.039062 226.425781 L 295.503906 226.488281 L 293.964844 226.558594 C 292.703125 226.613281 291.441406 226.671875 290.179688 226.722656 L 290.179688 225.652344 L 298.753906 225.652344 L 298.753906 224.582031 L 300.894531 225.117188 L 300.859375 223.9375 C 300.785156 219.925781 301.1875 216.191406 301.964844 212.261719 L 298.753906 211.726562 L 298.753906 210.121094 L 303.039062 210.121094 L 302.601562 208.949219 L 302.503906 207.441406 C 303.675781 205.9375 303.675781 205.9375 305.179688 204.765625 L 307.324219 204.765625 L 307.859375 203.160156 L 308.929688 203.160156 L 308.929688 201.550781 L 310.003906 201.550781 L 309.699219 200.28125 L 309.464844 198.875 Z M 245.179688 103.011719 L 246.253906 103.011719 C 246.789062 107.644531 246.835938 112.214844 246.789062 116.871094 C 246.773438 118.242188 246.761719 119.613281 246.753906 120.984375 L 246.734375 122.796875 C 246.785156 124.304688 246.976562 125.648438 247.324219 127.113281 L 246.789062 126.039062 L 245.179688 126.039062 C 245.140625 128.460938 245.125 130.640625 245.714844 133.003906 L 243.574219 133.003906 L 241.964844 131.394531 L 243.039062 137.289062 L 238.753906 137.289062 L 238.753906 139.964844 L 237.144531 139.964844 L 237.144531 138.359375 L 235.539062 137.824219 L 236.222656 137.039062 L 237.109375 136.015625 L 237.996094 135 C 238.789062 134.097656 238.789062 134.097656 239.289062 133.003906 L 240.359375 133.003906 L 240.792969 131.867188 C 241.46875 130.226562 242.25 128.667969 243.039062 127.078125 C 246.628906 119.3125 245.808594 111.304688 245.179688 103.011719 " fill-opacity="1" fill-rule="nonzero"/><path fill="#790e0e" d="M 106.964844 252.964844 C 108.105469 253.199219 108.105469 253.199219 109.109375 253.5 L 108.039062 255.640625 L 106.964844 255.640625 L 106.53125 256.644531 C 105.894531 257.785156 105.894531 257.785156 104.289062 258.855469 C 102.3125 258.652344 102.3125 258.652344 100.539062 258.320312 L 100.371094 259.625 C 99.925781 261.9375 99.304688 264.175781 98.394531 266.351562 L 97.324219 267.421875 L 97.324219 269.03125 L 91.964844 269.03125 L 91.964844 270.101562 L 89.824219 270.101562 L 90.894531 266.886719 L 93.039062 266.886719 L 93.039062 265.816406 L 94.644531 265.816406 L 95.714844 263.675781 L 97.324219 263.675781 L 97.324219 261.53125 L 98.394531 261.53125 L 98.328125 259.757812 L 98.394531 257.785156 L 99.464844 256.175781 C 100.976562 255.902344 100.976562 255.902344 102.746094 255.808594 L 104.527344 255.703125 L 105.894531 255.640625 L 105.894531 253.5 Z M 106.964844 252.964844 " fill-opacity="1" fill-rule="nonzero"/><path fill="#a60002" d="M 133.214844 28.574219 C 131.140625 29.210938 129.511719 29.644531 127.324219 29.644531 L 127.324219 30.714844 L 125.617188 30.914062 C 123.863281 31.203125 122.5 31.59375 120.894531 32.320312 L 120.894531 33.390625 L 118.753906 33.390625 L 118.753906 35 C 121.625 35.054688 124.480469 34.875 127.324219 34.464844 L 127.324219 37.140625 L 125.582031 37.375 C 123.722656 37.605469 123.722656 37.605469 122.550781 37.976562 C 121.167969 38.265625 120.019531 38.144531 118.617188 37.976562 L 117.171875 37.8125 L 116.074219 37.675781 L 115.539062 35.535156 L 110.179688 35.535156 C 114.910156 32.382812 127.539062 26.476562 133.214844 28.574219 " fill-opacity="1" fill-rule="nonzero"/><path fill="#701313" d="M 196.964844 252.964844 L 198.039062 252.964844 C 198.050781 256.46875 198.0625 259.972656 198.066406 263.476562 C 198.070312 264.664062 198.074219 265.851562 198.078125 267.039062 C 198.105469 273.796875 198.058594 280.503906 197.503906 287.238281 L 198.574219 287.238281 L 198.574219 295.808594 L 196.964844 295.808594 L 196.964844 287.238281 L 195.894531 287.238281 L 195.894531 278.671875 L 196.964844 278.671875 Z M 196.964844 252.964844 " fill-opacity="1" fill-rule="nonzero"/><path fill="#940506" d="M 221.609375 16.789062 L 255.894531 16.789062 L 255.894531 18.398438 L 221.609375 18.398438 Z M 46.429688 141.570312 L 46.964844 141.570312 L 46.964844 151.210938 L 45.894531 151.210938 L 45.359375 222.972656 L 44.824219 222.972656 C 44.785156 213.941406 44.757812 204.910156 44.742188 195.878906 C 44.734375 191.683594 44.71875 187.488281 44.703125 183.292969 C 44.6875 179.632812 44.675781 175.96875 44.671875 172.308594 C 44.671875 170.375 44.664062 168.441406 44.652344 166.507812 C 44.605469 158.054688 44.796875 149.886719 46.429688 141.570312 M 235.003906 138.359375 L 235.539062 139.964844 L 236.609375 140.5 L 235.539062 140.5 L 235.539062 141.570312 L 232.859375 141.570312 L 232.859375 144.25 L 230.179688 144.25 L 230.714844 145.320312 L 232.324219 145.855469 L 231.253906 145.855469 L 231.789062 148.535156 L 228.039062 148.535156 L 228.574219 145.320312 C 227.859375 145.460938 227.144531 145.605469 226.429688 145.753906 L 225.226562 146 C 223.644531 146.382812 223.644531 146.382812 221.796875 147.226562 C 219.140625 148.242188 216.621094 148.195312 213.808594 148.132812 L 212.335938 148.125 C 209.664062 148.09375 207.101562 147.910156 204.464844 147.460938 L 204.464844 146.390625 L 205.4375 146.464844 C 213.125 147.023438 219.492188 147.152344 226.589844 143.804688 C 229.730469 142.273438 232.378906 140.683594 235.003906 138.359375 M 97.859375 127.648438 L 101.609375 127.648438 C 102.546875 129.523438 102.089844 131.652344 101.976562 133.707031 L 101.921875 135.09375 C 101.796875 137.457031 101.625 139.421875 100.539062 141.570312 L 99.464844 141.570312 C 98.351562 138.742188 98.085938 136.003906 97.859375 133.003906 L 96.789062 133.003906 L 97.324219 129.789062 L 98.394531 129.789062 Z M 98.394531 207.441406 L 101.609375 207.441406 C 101.625 209.214844 101.632812 210.992188 101.644531 212.765625 L 101.65625 214.300781 L 101.660156 215.757812 L 101.671875 217.109375 L 101.609375 218.152344 L 101.074219 218.6875 C 99.824219 218.710938 98.574219 218.710938 97.324219 218.6875 C 97.296875 217.214844 97.273438 215.742188 97.257812 214.269531 L 97.230469 213.011719 C 97.214844 211.234375 97.203125 209.886719 97.863281 208.222656 Z M 98.394531 207.441406 " fill-opacity="1" fill-rule="nonzero"/><path fill="#790e0e" d="M 213.304688 78.746094 L 214.449219 78.75 C 222.582031 78.800781 222.582031 78.800781 225.894531 79.449219 L 226.429688 80.519531 C 227.496094 81.023438 228.582031 81.488281 229.679688 81.925781 L 231.472656 82.648438 L 232.859375 83.199219 L 232.859375 84.269531 L 235.539062 84.804688 L 235.539062 85.875 L 236.609375 85.875 L 236.609375 88.015625 C 234.898438 87.226562 233.441406 86.25 231.921875 85.140625 C 228.324219 82.601562 224.933594 80.71875 220.539062 79.984375 C 213.296875 79.414062 205.820312 79.15625 199.007812 81.921875 C 197.195312 82.8125 195.460938 83.730469 193.753906 84.804688 L 192.679688 84.804688 C 193.214844 83.199219 193.214844 83.199219 194.378906 82.101562 C 199.84375 78.332031 206.9375 78.722656 213.304688 78.746094 " fill-opacity="1" fill-rule="nonzero"/><path fill="#621517" d="M 198.574219 229.398438 L 201.253906 229.398438 L 201.253906 278.671875 L 200.714844 278.671875 C 200.339844 263.136719 200.09375 247.617188 200.179688 232.078125 L 198.039062 231.007812 Z M 198.574219 229.398438 " fill-opacity="1" fill-rule="nonzero"/><path fill="#940506" d="M 97.859375 231.542969 L 101.074219 231.542969 C 101.925781 233.25 101.664062 235.09375 101.644531 236.964844 L 101.636719 238.1875 C 101.628906 239.1875 101.621094 240.183594 101.609375 241.183594 C 100.671875 241.785156 100.671875 241.785156 99.464844 242.253906 C 98.289062 241.9375 98.289062 241.9375 97.324219 241.183594 C 96.632812 239.042969 96.640625 236.730469 97 234.523438 C 97.246094 233.519531 97.546875 232.527344 97.859375 231.542969 M 97.859375 154.425781 L 101.074219 154.425781 C 101.925781 156.132812 101.664062 157.976562 101.644531 159.847656 L 101.636719 161.070312 C 101.628906 162.070312 101.621094 163.066406 101.609375 164.0625 C 100.671875 164.667969 100.671875 164.667969 99.464844 165.136719 C 98.289062 164.820312 98.289062 164.820312 97.324219 164.0625 C 96.632812 161.925781 96.640625 159.613281 97 157.402344 C 97.246094 156.398438 97.546875 155.410156 97.859375 154.425781 " fill-opacity="1" fill-rule="nonzero"/><path fill="#87080a" d="M 71.609375 295.808594 L 72.679688 295.808594 C 72.695312 296.832031 72.707031 297.859375 72.714844 298.886719 L 72.734375 300.617188 C 72.679688 302.234375 72.679688 302.234375 72.414062 303.207031 C 72.074219 304.679688 72.074219 306.046875 72.074219 307.558594 L 72.070312 309.441406 L 72.078125 311.40625 L 72.070312 313.328125 C 72.074219 316.984375 72.222656 320.566406 72.679688 324.191406 L 71.074219 323.65625 L 71.074219 321.511719 L 70.003906 321.511719 L 70.003906 304.375 L 71.074219 304.375 Z M 71.609375 295.808594 " fill-opacity="1" fill-rule="nonzero"/><path fill="#940506" d="M 98.929688 181.203125 L 101.609375 181.203125 L 101.609375 192.984375 L 98.394531 192.984375 C 97.613281 191.425781 97.769531 190.035156 97.757812 188.296875 L 97.734375 186.332031 C 97.859375 184.433594 98.246094 182.964844 98.929688 181.203125 " fill-opacity="1" fill-rule="nonzero"/><path fill="#87080a" d="M 57.679688 98.726562 L 58.753906 98.726562 C 58.242188 100.921875 57.71875 102.980469 56.84375 105.054688 C 55.933594 107.324219 55.859375 109.515625 55.808594 111.945312 L 55.539062 113.1875 L 54.5 113.628906 L 53.394531 114.257812 C 53.003906 115.667969 52.714844 117.09375 52.523438 118.542969 L 52.136719 121.023438 L 51.957031 122.238281 C 51.738281 123.675781 51.492188 125.113281 51.21875 126.542969 L 51 127.761719 C 50.714844 128.71875 50.714844 128.71875 49.644531 129.789062 C 49.429688 130.855469 49.25 131.925781 49.109375 133.003906 L 48.039062 133.003906 C 50.136719 121.613281 52.457031 109.167969 57.679688 98.726562 " fill-opacity="1" fill-rule="nonzero"/><path fill="#a60002" d="M 83.394531 59.632812 L 84.464844 59.632812 L 84.464844 62.847656 L 83.394531 62.847656 L 83.394531 64.453125 L 81.789062 64.988281 L 81.253906 67.667969 L 80.179688 67.667969 L 80.179688 68.738281 L 78.707031 68.9375 C 76.625 69.332031 76.625 69.332031 74.824219 70.34375 C 74.136719 71.703125 74.136719 71.703125 73.753906 73.023438 L 72.679688 73.023438 C 74.03125 68.40625 76.742188 64.492188 79.644531 60.703125 L 80.179688 60.703125 L 80.179688 63.382812 L 78.574219 63.382812 L 78.574219 64.453125 L 80.714844 64.453125 L 80.714844 62.847656 L 82.859375 62.847656 Z M 83.394531 59.632812 " fill-opacity="1" fill-rule="nonzero"/><path fill="#790e0e" d="M 97.859375 103.011719 L 101.609375 103.546875 C 101.535156 105.289062 101.457031 107.027344 101.375 108.769531 L 101.3125 110.265625 L 101.242188 111.707031 L 101.183594 113.03125 C 101.078125 114.207031 100.859375 115.269531 100.539062 116.402344 L 98.929688 116.402344 C 98.75 114.972656 98.570312 113.542969 98.394531 112.117188 C 98.34375 111.71875 98.292969 111.320312 98.238281 110.910156 C 97.917969 108.257812 97.8125 105.6875 97.859375 103.011719 " fill-opacity="1" fill-rule="nonzero"/><path fill="#701313" d="M 124.644531 356.859375 C 125.773438 356.90625 126.898438 356.964844 128.027344 357.027344 L 129.929688 357.121094 C 130.484375 357.210938 131.039062 357.300781 131.609375 357.394531 C 132.546875 358.199219 132.546875 358.199219 133.214844 359 C 134.613281 359.386719 134.613281 359.386719 135.894531 359.535156 L 135.894531 357.929688 L 138.574219 357.929688 L 138.039062 359.535156 L 141.253906 360.070312 L 141.253906 361.144531 L 142.199219 361.222656 C 145.847656 361.554688 149.433594 362.113281 153.039062 362.75 L 153.039062 363.820312 C 148.566406 363.574219 144.28125 362.765625 139.929688 361.761719 C 138.84375 361.511719 137.757812 361.269531 136.671875 361.03125 C 132.542969 360.101562 128.578125 358.96875 124.644531 357.394531 Z M 124.644531 356.859375 " fill-opacity="1" fill-rule="nonzero"/><path fill="#87080a" d="M 110.179688 35.535156 L 110.179688 37.140625 L 108.539062 37.84375 L 107.507812 38.296875 C 106.5 38.71875 105.460938 39.070312 104.421875 39.417969 L 102.679688 40.355469 C 101.28125 42.78125 100.820312 45.082031 100.539062 47.851562 L 98.394531 47.851562 L 98.394531 44.101562 L 96.253906 44.101562 L 96.253906 45.710938 L 93.574219 45.710938 L 94.578125 45.308594 L 95.714844 44.636719 L 96.21875 43.566406 L 96.789062 42.496094 L 98.058594 41.996094 L 99.464844 41.425781 L 100.371094 40.152344 C 101.9375 38.375 103.460938 37.871094 105.660156 37.085938 C 106.964844 36.636719 106.964844 36.636719 108.136719 36.007812 C 109.109375 35.535156 109.109375 35.535156 110.179688 35.535156 " fill-opacity="1" fill-rule="nonzero"/><path fill="#a60002" d="M 148.753906 25.359375 L 148.753906 26.964844 L 153.039062 26.964844 L 153.039062 27.5 L 148.753906 27.5 L 148.753906 28.574219 C 147.144531 29.109375 147.144531 29.109375 145.707031 28.875 L 144.464844 28.574219 L 144.464844 26.964844 L 143.503906 27.199219 C 140.027344 27.976562 136.769531 28.160156 133.214844 28.035156 C 138.082031 25.402344 143.332031 25.125 148.753906 25.359375 M 63.574219 87.480469 L 64.109375 87.480469 L 64.109375 90.160156 L 66.253906 90.160156 L 66.789062 88.015625 L 67.324219 88.554688 C 67.34375 89.800781 67.34375 91.050781 67.324219 92.300781 C 66.117188 92.871094 66.117188 92.871094 64.644531 93.371094 C 63.40625 93.171875 63.40625 93.171875 62.503906 92.835938 L 62.300781 94.144531 L 61.964844 95.515625 L 60.894531 96.050781 L 60.359375 97.65625 L 59.289062 97.65625 L 58.753906 98.726562 C 59.046875 96.066406 59.933594 93.945312 61.164062 91.597656 L 61.683594 90.574219 C 62.945312 88.109375 62.945312 88.109375 63.574219 87.480469 " fill-opacity="1" fill-rule="nonzero"/><path fill="#87080a" d="M 97.859375 52.671875 C 100.539062 53.207031 100.539062 53.207031 101.609375 53.742188 C 101.535156 55.046875 101.457031 56.355469 101.375 57.660156 L 101.3125 58.777344 C 101.207031 60.421875 101.0625 61.8125 100.539062 63.382812 L 98.394531 62.3125 Z M 97.859375 52.671875 " fill-opacity="1" fill-rule="nonzero"/><path fill="#940506" d="M 290.179688 15.183594 C 293.453125 15.128906 296.59375 15.144531 299.824219 15.71875 L 298.753906 16.253906 L 298.753906 17.324219 C 290.167969 17.402344 281.613281 17.175781 273.039062 16.789062 L 273.039062 16.253906 L 290.179688 16.253906 Z M 290.179688 15.183594 " fill-opacity="1" fill-rule="nonzero"/><path fill="#a60002" d="M 335.179688 150.140625 L 336.789062 150.140625 L 336.789062 184.414062 L 336.253906 184.414062 L 336.253906 158.707031 L 335.179688 158.707031 Z M 335.179688 150.140625 " fill-opacity="1" fill-rule="nonzero"/><path fill="#621517" d="M 169.644531 338.652344 L 171.253906 338.652344 L 170.816406 339.734375 C 168.636719 345.199219 166.605469 350.558594 165.359375 356.324219 L 164.824219 356.324219 C 164.578125 352.972656 165.0625 350.03125 165.828125 346.785156 L 166.109375 345.582031 C 166.574219 343.691406 167.054688 341.945312 168.039062 340.257812 L 169.109375 340.257812 Z M 169.644531 338.652344 " fill-opacity="1" fill-rule="nonzero"/><path fill="#87080a" d="M 311.609375 37.675781 L 313.214844 39.015625 C 318.359375 42.867188 324.84375 46.035156 331.21875 46.988281 C 332.359375 47.125 333.5 47.222656 334.644531 47.316406 L 334.644531 47.851562 C 329.914062 48.199219 325.675781 47.425781 321.253906 45.710938 C 320.167969 45.015625 319.097656 44.300781 318.039062 43.566406 L 316.128906 42.796875 C 314.132812 41.890625 313 40.96875 311.609375 39.285156 Z M 311.609375 37.675781 " fill-opacity="1" fill-rule="nonzero"/><path fill="#a60002" d="M 217.859375 76.234375 L 219.464844 76.769531 L 218.929688 77.84375 L 223.753906 78.378906 L 223.753906 79.449219 L 222.03125 79.441406 C 219.917969 79.429688 217.804688 79.425781 215.6875 79.417969 C 214.777344 79.417969 213.863281 79.414062 212.949219 79.410156 C 211.632812 79.402344 210.316406 79.398438 209 79.394531 L 207.769531 79.386719 C 205.539062 79.386719 203.441406 79.546875 201.253906 79.984375 L 201.789062 78.378906 L 203.089844 78.296875 C 205.035156 78.171875 206.976562 78.039062 208.917969 77.910156 L 210.96875 77.78125 L 212.929688 77.644531 L 214.742188 77.527344 C 216.359375 77.402344 216.359375 77.402344 217.859375 76.234375 M 310.003906 197.804688 L 310.539062 198.875 L 313.753906 198.339844 L 313.144531 199.027344 C 311.6875 200.695312 310.332031 202.355469 309.097656 204.195312 L 307.859375 205.835938 L 306.253906 205.835938 L 306.253906 206.90625 L 304.644531 207.980469 C 304.253906 209.621094 304.253906 209.621094 304.109375 211.191406 L 303.039062 211.191406 C 302.601562 209.484375 302.601562 209.484375 302.503906 207.441406 C 303.675781 205.871094 303.675781 205.871094 305.179688 204.765625 L 307.324219 204.765625 L 307.859375 203.160156 L 308.929688 203.160156 L 308.929688 201.550781 L 310.003906 201.550781 L 309.699219 200.28125 L 309.464844 198.875 Z M 310.003906 197.804688 " fill-opacity="1" fill-rule="nonzero"/><path fill="#600702" d="M 99.464844 78.378906 L 100.539062 78.378906 L 100.539062 90.695312 L 98.394531 90.695312 L 98.394531 81.589844 L 99.464844 81.589844 Z M 99.464844 78.378906 " fill-opacity="1" fill-rule="nonzero"/><path fill="#a60002" d="M 49.644531 277.0625 C 50.273438 281.378906 50.007812 285.121094 49.109375 289.378906 C 47.582031 286.539062 46.898438 283.46875 46.898438 280.242188 L 46.964844 278.671875 L 48.039062 278.671875 L 48.039062 277.597656 C 49.109375 277.0625 49.109375 277.0625 49.644531 277.0625 " fill-opacity="1" fill-rule="nonzero"/><path fill="#380402" d="M 99.464844 129.789062 L 101.074219 130.324219 C 101.085938 131.597656 101.097656 132.871094 101.105469 134.140625 L 101.121094 135.21875 C 101.132812 137.398438 100.960938 139.4375 100.539062 141.570312 L 99.464844 141.570312 C 98.667969 139.972656 98.855469 138.335938 98.863281 136.585938 L 98.859375 134.449219 C 98.917969 132.8125 99.078125 131.375 99.464844 129.789062 " fill-opacity="1" fill-rule="nonzero"/><path fill="#87080a" d="M 133.214844 28.574219 C 131.140625 29.210938 129.511719 29.644531 127.324219 29.644531 L 127.324219 30.714844 L 125.617188 30.914062 C 123.863281 31.203125 122.5 31.59375 120.894531 32.320312 L 120.894531 33.390625 L 119.699219 33.589844 L 118.117188 33.859375 L 116.554688 34.125 C 114.996094 34.414062 114.996094 34.414062 113.601562 35.070312 L 112.324219 35.535156 C 111.171875 35.296875 111.171875 35.296875 110.179688 35 C 129.875 27.355469 129.875 27.355469 133.214844 28.574219 " fill-opacity="1" fill-rule="nonzero"/><path fill="#a60002" d="M 98.394531 207.441406 L 101.609375 207.441406 L 101.609375 218.152344 L 100.539062 218.6875 L 100.539062 209.585938 L 98.929688 209.050781 L 98.929688 210.121094 L 97.859375 210.121094 L 97.859375 218.6875 L 97.324219 218.6875 C 97.296875 217.214844 97.273438 215.742188 97.257812 214.269531 L 97.230469 213.011719 C 97.214844 211.234375 97.203125 209.886719 97.863281 208.222656 Z M 98.394531 207.441406 " fill-opacity="1" fill-rule="nonzero"/><path fill="#87080a" d="M 101.609375 76.234375 C 101.667969 79.507812 101.554688 82.636719 101.074219 85.875 L 100.539062 85.875 L 100.539062 78.378906 L 99.464844 78.378906 L 99.464844 81.589844 L 96.253906 81.589844 L 96.789062 78.914062 L 98.394531 78.378906 L 98.394531 76.769531 C 99.464844 76.234375 99.464844 76.234375 101.609375 76.234375 M 83.929688 274.386719 L 84.464844 275.992188 L 83.496094 276.527344 C 82.023438 277.875 81.621094 279.144531 80.992188 281.003906 L 80.714844 281.882812 L 79.109375 281.882812 L 78.875 282.820312 L 78.039062 286.167969 L 76.964844 286.167969 L 76.964844 287.238281 L 75.894531 287.238281 C 75.828125 284.160156 75.828125 284.160156 76.429688 282.953125 L 78.039062 282.953125 L 78.40625 281.917969 C 79.011719 280.507812 79.667969 279.125 80.382812 277.765625 L 81.03125 276.519531 C 81.789062 275.457031 81.789062 275.457031 82.949219 274.777344 Z M 83.929688 274.386719 " fill-opacity="1" fill-rule="nonzero"/><path fill="#a60002" d="M 59.289062 312.945312 L 60.359375 312.945312 L 60.359375 314.015625 L 61.429688 314.015625 L 61.964844 315.085938 C 63.027344 315.476562 64.097656 315.835938 65.179688 316.15625 L 65.714844 320.976562 L 67.324219 320.976562 L 66.789062 323.121094 C 65.9375 322.207031 65.089844 321.292969 64.242188 320.375 L 62.8125 318.832031 C 61.484375 317.289062 60.34375 315.753906 59.289062 314.015625 Z M 59.289062 312.945312 " fill-opacity="1" fill-rule="nonzero"/><path fill="#87080a" d="M 144.464844 235.828125 L 150.359375 235.828125 L 148.753906 236.363281 L 148.214844 237.96875 C 146.699219 238.726562 145.285156 238.691406 143.597656 238.804688 L 141.667969 238.941406 L 140.179688 239.039062 L 140.179688 240.109375 L 135.894531 240.109375 L 136.429688 239.039062 C 139.09375 238.257812 141.714844 237.777344 144.464844 237.433594 Z M 144.464844 235.828125 " fill-opacity="1" fill-rule="nonzero"/><path fill="#940506" d="M 313.214844 192.984375 C 313.996094 192.957031 314.777344 192.933594 315.558594 192.917969 L 316.878906 192.878906 L 318.039062 192.984375 L 319.109375 194.054688 L 320.714844 192.984375 L 322.859375 193.519531 L 314.824219 197.804688 L 314.824219 194.589844 L 313.214844 194.054688 Z M 176.609375 107.296875 L 178.214844 107.296875 L 178.214844 119.078125 L 176.609375 119.078125 Z M 176.609375 107.296875 " fill-opacity="1" fill-rule="nonzero"/><path fill="#790e0e" d="M 90.359375 340.792969 C 91.386719 340.945312 92.414062 341.101562 93.441406 341.261719 L 95.171875 341.523438 C 96.644531 341.832031 97.6875 342.097656 98.929688 342.933594 C 99.660156 344.136719 100.046875 345.355469 100.539062 346.683594 C 97.996094 345.945312 95.863281 344.84375 93.640625 343.4375 L 92.679688 342.847656 C 91.894531 342.355469 91.121094 341.847656 90.359375 341.328125 Z M 90.359375 340.792969 " fill-opacity="1" fill-rule="nonzero"/><path fill="#940506" d="M 164.824219 229.9375 L 170.179688 229.9375 L 170.179688 230.472656 C 169.253906 230.742188 168.328125 231.011719 167.402344 231.273438 L 165.839844 231.726562 C 164.367188 232.058594 163.113281 232.144531 161.609375 232.078125 L 161.609375 233.148438 L 153.039062 233.148438 L 153.039062 232.078125 L 164.824219 231.007812 Z M 91.964844 46.78125 L 93.039062 47.316406 L 91.730469 48.554688 C 90.269531 49.882812 90.269531 49.882812 89.824219 51.601562 L 88.753906 52.136719 C 88.402344 53.488281 88.402344 53.488281 88.214844 54.8125 L 86.910156 55.015625 L 85.539062 55.347656 L 85.003906 56.421875 L 83.929688 55.347656 C 84.53125 54.542969 85.132812 53.738281 85.738281 52.941406 L 86.753906 51.585938 L 87.679688 50.53125 L 88.753906 50.53125 L 88.753906 49.457031 L 89.824219 49.457031 L 90.292969 48.421875 L 90.894531 47.316406 Z M 91.964844 46.78125 " fill-opacity="1" fill-rule="nonzero"/><path fill="#790e0e" d="M 185.179688 90.160156 L 186.789062 90.695312 L 185.828125 92.070312 C 182.847656 96.453125 180.824219 100.609375 179.289062 105.691406 L 178.753906 105.691406 L 178.753906 101.941406 L 179.824219 101.941406 L 180.023438 100.535156 C 180.617188 97.339844 181.472656 95.320312 183.574219 92.835938 C 184.125 91.953125 184.660156 91.0625 185.179688 90.160156 " fill-opacity="1" fill-rule="nonzero"/><path fill="#940506" d="M 223.753906 79.449219 L 225.894531 79.449219 L 226.429688 80.519531 C 227.496094 81.023438 228.582031 81.488281 229.679688 81.925781 L 231.472656 82.648438 L 232.859375 83.199219 L 232.859375 84.269531 L 235.539062 84.804688 L 235.539062 85.875 L 236.609375 85.875 L 236.609375 88.015625 C 234.914062 87.230469 233.464844 86.269531 231.957031 85.171875 C 229.78125 83.625 227.578125 82.300781 225.207031 81.078125 L 224.289062 80.519531 Z M 223.753906 79.449219 " fill-opacity="1" fill-rule="nonzero"/><path fill="#380402" d="M 99.464844 104.082031 L 101.074219 104.082031 C 101.121094 105.757812 101.148438 107.429688 101.175781 109.105469 L 101.214844 110.546875 L 101.230469 111.929688 L 101.257812 113.203125 L 101.074219 114.257812 L 99.464844 115.328125 Z M 99.464844 104.082031 " fill-opacity="1" fill-rule="nonzero"/><path fill="#87080a" d="M 97.324219 261.53125 L 98.394531 261.53125 C 98.527344 263.039062 98.527344 263.039062 98.394531 264.746094 C 96.777344 266.496094 94.152344 267.5625 91.964844 268.496094 L 90.894531 268.496094 L 90.894531 270.101562 L 89.824219 270.101562 L 90.894531 266.886719 L 93.039062 266.886719 L 93.039062 265.816406 L 94.644531 265.816406 L 95.714844 263.675781 L 97.324219 263.675781 Z M 97.324219 261.53125 " fill-opacity="1" fill-rule="nonzero"/><path fill="#790e0e" d="M 306.253906 205.835938 L 307.324219 205.835938 C 306.929688 207.835938 306.09375 209.53125 305.214844 211.359375 C 304.074219 213.789062 303.109375 216.078125 302.503906 218.6875 L 301.964844 218.6875 C 302.027344 217.742188 302.097656 216.792969 302.167969 215.84375 C 302.203125 215.316406 302.242188 214.789062 302.28125 214.242188 C 302.503906 212.796875 302.503906 212.796875 303.574219 211.191406 L 304.074219 209.25 L 304.644531 207.441406 L 306.253906 206.90625 Z M 306.253906 205.835938 " fill-opacity="1" fill-rule="nonzero"/><path fill="#87080a" d="M 144.464844 360.070312 L 153.039062 360.609375 L 153.039062 362.75 L 144.464844 361.679688 Z M 144.464844 360.070312 " fill-opacity="1" fill-rule="nonzero"/><path fill="#790e0e" d="M 164.824219 349.363281 C 165.527344 351.433594 165.335938 353.359375 165.191406 355.519531 C 165.148438 356.222656 165.109375 356.921875 165.0625 357.644531 C 164.824219 359.535156 164.824219 359.535156 163.753906 361.679688 L 162.679688 351.503906 L 163.753906 351.503906 L 163.753906 350.433594 L 164.824219 350.433594 Z M 164.824219 349.363281 " fill-opacity="1" fill-rule="nonzero"/><path fill="#940506" d="M 79.644531 60.703125 L 80.179688 60.703125 L 80.179688 63.382812 L 78.574219 63.382812 L 78.039062 67.132812 L 76.964844 67.132812 L 76.964844 68.203125 L 75.960938 69.171875 C 74.757812 70.410156 74.292969 71.402344 73.753906 73.023438 L 72.679688 73.023438 C 74.03125 68.40625 76.742188 64.492188 79.644531 60.703125 M 73.214844 287.238281 L 75.894531 287.238281 L 73.753906 295.808594 L 72.679688 295.808594 Z M 73.214844 287.238281 " fill-opacity="1" fill-rule="nonzero"/><path fill="#790e0e" d="M 88.214844 270.101562 L 90.359375 270.101562 L 90.359375 273.851562 L 84.464844 274.386719 L 85.003906 272.777344 C 85.886719 272.226562 86.777344 271.691406 87.679688 271.171875 Z M 88.214844 270.101562 " fill-opacity="1" fill-rule="nonzero"/><path fill="#940506" d="M 305.714844 29.644531 C 307.324219 30.714844 307.324219 30.714844 308.058594 32.152344 L 308.929688 33.929688 C 309.785156 35.207031 310.691406 36.4375 311.609375 37.675781 C 310.304688 37.273438 310.304688 37.273438 308.929688 36.605469 C 308.496094 35.46875 308.496094 35.46875 308.394531 34.464844 L 305.714844 34.464844 L 305.714844 32.320312 L 304.644531 32.320312 L 304.644531 30.179688 Z M 305.714844 29.644531 " fill-opacity="1" fill-rule="nonzero"/><path fill="#87080a" d="M 52.859375 300.089844 L 54.464844 300.089844 C 54.734375 301.050781 55.003906 302.011719 55.269531 302.96875 L 55.722656 304.589844 C 56.074219 305.984375 56.074219 305.984375 56.074219 307.054688 L 57.144531 307.054688 C 57.519531 307.730469 57.886719 308.414062 58.25 309.09375 L 58.871094 310.242188 L 59.289062 311.339844 L 58.753906 312.945312 C 57.96875 311.574219 57.1875 310.203125 56.410156 308.828125 L 55.738281 307.65625 C 52.859375 302.574219 52.859375 302.574219 52.859375 300.089844 M 300.894531 17.324219 C 303.308594 20.945312 304.640625 25.441406 305.714844 29.644531 C 304.304688 28.796875 303.503906 28.242188 302.503906 26.964844 C 301.40625 23.832031 300.78125 20.652344 300.894531 17.324219 " fill-opacity="1" fill-rule="nonzero"/><path fill="#940506" d="M 49.644531 129.253906 C 50.179688 130.324219 50.179688 130.324219 50.117188 131.953125 L 49.945312 133.875 L 49.78125 135.800781 L 49.644531 137.289062 L 48.574219 136.75 L 48.039062 141.570312 L 46.964844 141.570312 C 46.839844 138.476562 47.039062 135.941406 48.039062 133.003906 L 49.109375 133.003906 L 49.074219 131.429688 L 49.109375 129.789062 Z M 49.644531 129.253906 " fill-opacity="1" fill-rule="nonzero"/><path fill="#790e0e" d="M 144.464844 238.503906 L 144.464844 239.574219 C 143.496094 240.414062 143.496094 240.414062 141.789062 241.183594 C 139.828125 241.472656 137.871094 241.617188 135.894531 241.71875 L 135.894531 240.109375 L 140.179688 240.109375 L 140.179688 239.039062 C 141.75 238.515625 142.835938 238.460938 144.464844 238.503906 M 195.894531 228.328125 L 203.929688 228.328125 L 201.789062 228.863281 L 201.253906 229.9375 L 187.324219 229.9375 L 187.324219 229.398438 L 195.894531 229.398438 Z M 195.894531 228.328125 " fill-opacity="1" fill-rule="nonzero"/><path fill="#87080a" d="M 192.144531 141.035156 C 194.910156 141.683594 197.128906 142.703125 199.585938 144.132812 C 200.65625 144.746094 201.746094 145.320312 202.859375 145.855469 C 200.410156 145.5625 198.210938 145.097656 195.894531 144.25 L 195.359375 145.855469 L 194.289062 145.855469 L 194.289062 143.714844 L 193.214844 143.714844 L 193.214844 142.644531 L 192.144531 142.105469 Z M 116.074219 247.609375 C 117.511719 247.542969 117.511719 247.542969 118.753906 247.609375 L 118.753906 248.679688 L 117.511719 249.082031 L 116.074219 249.75 L 115.371094 250.890625 L 114.464844 251.894531 C 112.992188 252.085938 111.675781 251.992188 110.179688 251.894531 L 110.179688 250.820312 L 114.464844 249.75 L 114.464844 248.679688 Z M 116.074219 247.609375 " fill-opacity="1" fill-rule="nonzero"/><path fill="#a60002" d="M 97.859375 101.941406 C 99.800781 101.875 99.800781 101.875 101.609375 101.941406 C 102.46875 103.664062 102.175781 105.386719 102.144531 107.296875 L 101.609375 107.296875 L 101.609375 103.546875 L 97.859375 103.011719 L 97.859375 107.296875 L 96.789062 107.296875 C 96.683594 104.054688 96.683594 104.054688 96.789062 103.011719 Z M 96.789062 81.589844 L 98.394531 81.589844 C 98.410156 82.617188 98.421875 83.644531 98.429688 84.671875 L 98.449219 86.402344 C 98.402344 87.769531 98.257812 88.863281 97.859375 90.160156 L 96.789062 90.160156 Z M 96.789062 81.589844 " fill-opacity="1" fill-rule="nonzero"/><path fill="#940506" d="M 68.929688 78.378906 L 69.464844 78.378906 L 69.464844 81.589844 L 68.394531 81.589844 L 67.859375 84.269531 L 66.253906 84.269531 L 65.785156 85.574219 L 65.179688 86.945312 L 64.109375 87.480469 C 64.871094 85.46875 65.785156 83.609375 66.820312 81.726562 L 67.675781 80.160156 C 68.394531 78.914062 68.394531 78.914062 68.929688 78.378906 " fill-opacity="1" fill-rule="nonzero"/><path fill="#790e0e" d="M 67.324219 323.121094 C 68.625 323.746094 69.875 324.457031 71.074219 325.261719 C 71.960938 325.46875 72.851562 325.652344 73.753906 325.796875 L 73.753906 323.65625 L 75.359375 324.191406 L 75.359375 325.796875 C 74.722656 326.703125 74.722656 326.703125 73.753906 327.402344 C 72.546875 327.738281 72.546875 327.738281 71.074219 327.402344 C 69.6875 326.273438 68.46875 325.03125 67.324219 323.65625 Z M 67.324219 323.121094 " fill-opacity="1" fill-rule="nonzero"/><path fill="#940506" d="M 121.964844 242.789062 L 123.039062 242.789062 L 123.039062 243.859375 L 127.324219 243.859375 L 127.324219 244.394531 L 123.039062 244.929688 L 123.039062 246.003906 L 121.429688 247.074219 C 119.992188 247.140625 119.992188 247.140625 118.753906 247.074219 L 118.753906 246.003906 L 119.757812 245.601562 C 120.972656 245.007812 120.972656 245.007812 121.566406 243.792969 Z M 243.574219 125.503906 L 244.109375 125.503906 C 244.210938 127.28125 244.210938 127.28125 244.109375 129.253906 C 243.585938 129.800781 243.046875 130.335938 242.503906 130.859375 C 242.367188 132.535156 242.367188 132.535156 242.503906 134.074219 L 239.289062 134.074219 L 239.289062 133.003906 L 240.359375 133.003906 L 240.761719 131.964844 C 241.648438 129.789062 242.613281 127.648438 243.574219 125.503906 " fill-opacity="1" fill-rule="nonzero"/><path fill="#87080a" d="M 239.824219 92.300781 C 240.828125 92.671875 240.828125 92.671875 241.964844 93.371094 C 242.34375 94.257812 242.699219 95.148438 243.039062 96.050781 L 244.644531 97.121094 C 244.917969 98.515625 244.917969 98.515625 245.011719 100.132812 L 245.121094 101.761719 L 245.179688 103.011719 C 243.886719 101.71875 243.480469 100.558594 242.804688 98.863281 C 241.890625 96.621094 240.953125 94.441406 239.824219 92.300781 " fill-opacity="1" fill-rule="nonzero"/><path fill="#470400" d="M 99.464844 54.277344 L 100.539062 54.277344 L 100.539062 63.382812 L 98.929688 62.847656 Z M 99.464844 54.277344 " fill-opacity="1" fill-rule="nonzero"/><path fill="#701313" d="M 75.894531 331.152344 L 80.179688 331.6875 L 80.179688 332.757812 L 81.253906 332.757812 L 82.023438 334.066406 L 82.859375 335.4375 L 84.464844 335.972656 L 83.929688 337.578125 C 82.589844 336.609375 81.25 335.640625 79.914062 334.667969 L 78.75 333.828125 L 77.652344 333.03125 L 76.632812 332.289062 L 75.894531 331.6875 Z M 75.894531 331.152344 " fill-opacity="1" fill-rule="nonzero"/><path fill="#940506" d="M 135.894531 240.109375 L 135.894531 241.71875 L 127.324219 242.789062 L 127.324219 241.183594 C 128.550781 241.003906 129.777344 240.824219 131.007812 240.648438 L 133.078125 240.34375 C 134.824219 240.109375 134.824219 240.109375 135.894531 240.109375 M 200.179688 79.984375 L 200.179688 81.054688 C 198.8125 81.980469 198.8125 81.980469 197.035156 82.996094 L 195.261719 84.023438 C 193.753906 84.804688 193.753906 84.804688 192.679688 84.804688 C 193.214844 83.199219 193.214844 83.199219 194.386719 82.09375 C 196.191406 80.851562 197.957031 79.984375 200.179688 79.984375 " fill-opacity="1" fill-rule="nonzero"/><path fill="#87080a" d="M 96.789062 42.496094 L 98.929688 43.03125 L 99.464844 46.246094 L 100.539062 46.246094 L 100.539062 47.851562 L 98.394531 47.851562 L 98.394531 44.101562 L 96.253906 44.101562 L 96.253906 45.710938 L 93.574219 45.710938 L 94.578125 45.308594 C 95.792969 44.71875 95.792969 44.71875 96.386719 43.5 Z M 144.464844 25.359375 L 144.464844 26.429688 L 139.109375 26.964844 L 139.109375 28.035156 L 133.214844 28.035156 C 135.0625 27.113281 136.5625 26.589844 138.539062 26.09375 C 139.085938 25.957031 139.632812 25.816406 140.195312 25.671875 C 141.671875 25.382812 142.96875 25.296875 144.464844 25.359375 M 71.609375 295.808594 L 72.679688 295.808594 C 72.695312 296.832031 72.707031 297.859375 72.714844 298.886719 L 72.734375 300.617188 C 72.6875 301.984375 72.542969 303.078125 72.144531 304.375 L 71.074219 304.375 Z M 71.609375 295.808594 " fill-opacity="1" fill-rule="nonzero"/><path fill="#940506" d="M 47.503906 150.140625 L 49.109375 150.140625 C 49.152344 152.726562 49.085938 155.085938 48.574219 157.636719 L 47.503906 157.101562 Z M 186.789062 89.089844 L 187.324219 90.160156 L 186.085938 90.496094 L 184.644531 91.230469 C 183.730469 92.835938 183.730469 92.835938 183.039062 94.445312 L 181.964844 94.980469 L 183.039062 91.765625 L 181.964844 91.765625 L 181.429688 90.160156 Z M 186.789062 89.089844 " fill-opacity="1" fill-rule="nonzero"/><path fill="#701313" d="M 135.894531 242.253906 L 138.574219 242.253906 L 139.109375 244.394531 L 132.144531 244.394531 L 132.679688 243.324219 L 135.894531 243.324219 Z M 135.894531 242.253906 " fill-opacity="1" fill-rule="nonzero"/><path fill="#940506" d="M 61.429688 316.15625 L 62.503906 316.15625 L 63.574219 317.765625 L 65.179688 318.300781 L 65.714844 320.976562 L 67.324219 320.976562 L 66.789062 323.121094 C 65.890625 322.164062 65 321.203125 64.109375 320.242188 L 63.335938 319.417969 C 62.679688 318.707031 62.054688 317.96875 61.429688 317.230469 Z M 61.429688 316.15625 " fill-opacity="1" fill-rule="nonzero"/><path fill="#87080a" d="M 57.679688 98.726562 L 58.753906 98.726562 C 58.0625 101.699219 57.1875 104.460938 56.074219 107.296875 L 55.003906 107.296875 C 55.589844 104.25 56.363281 101.542969 57.679688 98.726562 " fill-opacity="1" fill-rule="nonzero"/><path fill="#a60002" d="M 97.324219 55.886719 L 98.394531 55.886719 L 98.394531 64.453125 L 96.789062 64.453125 Z M 97.324219 55.886719 " fill-opacity="1" fill-rule="nonzero"/><path fill="#790e0e" d="M 169.644531 338.652344 L 171.253906 338.652344 C 170.816406 339.957031 170.816406 339.957031 170.179688 341.328125 L 168.574219 341.863281 C 168.023438 343.109375 168.023438 343.109375 167.667969 344.574219 L 167.261719 346.066406 L 166.964844 347.21875 L 166.429688 347.21875 C 166.492188 346.460938 166.5625 345.703125 166.632812 344.941406 C 166.667969 344.519531 166.707031 344.097656 166.742188 343.664062 C 166.972656 342.351562 167.386719 341.410156 168.039062 340.257812 L 169.109375 340.257812 Z M 169.644531 338.652344 " fill-opacity="1" fill-rule="nonzero"/><path fill="#a60002" d="M 95.714844 261.53125 L 97.324219 261.53125 L 97.324219 263.675781 L 96.285156 264.144531 L 95.179688 264.746094 L 94.644531 265.816406 L 93.039062 265.816406 L 93.574219 263.675781 L 94.644531 263.675781 Z M 95.714844 261.53125 " fill-opacity="1" fill-rule="nonzero"/><path fill="#940506" d="M 99.464844 256.175781 C 100.625 256.019531 100.625 256.019531 101.945312 256.078125 L 103.269531 256.121094 L 104.289062 256.175781 L 104.289062 257.25 L 102.511719 257.484375 C 100.574219 257.722656 100.574219 257.722656 98.929688 258.320312 L 98.929688 261.53125 L 98.394531 261.53125 C 98.351562 260.28125 98.351562 259.035156 98.394531 257.785156 Z M 99.464844 256.175781 " fill-opacity="1" fill-rule="nonzero"/><path fill="#87080a" d="M 334.644531 189.769531 L 334.644531 190.304688 C 333.25 190.664062 331.855469 191.023438 330.460938 191.375 L 329.261719 191.6875 C 327.625 192.101562 326.164062 192.449219 324.464844 192.449219 L 324.464844 191.375 C 331.15625 189.53125 331.15625 189.53125 334.644531 189.769531 " fill-opacity="1" fill-rule="nonzero"/><path fill="#600702" d="M 100.003906 40.890625 L 100.539062 40.890625 C 100.566406 41.761719 100.589844 42.628906 100.605469 43.5 L 100.640625 44.96875 L 100.539062 46.246094 L 99.464844 47.316406 C 99.246094 46.550781 99.03125 45.78125 98.832031 45.007812 L 98.472656 43.707031 L 98.394531 42.496094 C 99.136719 41.535156 99.136719 41.535156 100.003906 40.890625 " fill-opacity="1" fill-rule="nonzero"/><path fill="#940506" d="M 46.964844 280.277344 L 48.039062 280.8125 C 49.339844 283.628906 49.21875 286.347656 49.109375 289.378906 C 48.296875 287.878906 47.796875 286.496094 47.433594 284.828125 L 47.164062 283.605469 C 46.964844 282.417969 46.964844 282.417969 46.964844 280.277344 M 179.289062 98.726562 L 180.359375 98.726562 L 179.824219 101.941406 L 178.753906 101.941406 L 178.753906 107.296875 L 178.214844 107.296875 L 177.679688 100.871094 L 178.753906 100.871094 Z M 179.289062 98.726562 " fill-opacity="1" fill-rule="nonzero"/><path fill="#87080a" d="M 158.394531 22.679688 L 158.394531 23.753906 C 156.539062 24.324219 154.835938 24.34375 152.902344 24.320312 L 151.15625 24.308594 L 149.824219 24.289062 L 149.824219 23.753906 C 152.707031 23.117188 155.421875 22.523438 158.394531 22.679688 M 61.429688 90.695312 C 61.746094 91.605469 61.746094 91.605469 61.964844 92.835938 C 61.667969 94.101562 61.667969 94.101562 61.195312 95.382812 L 60.730469 96.679688 L 60.359375 97.65625 L 59.289062 97.65625 L 58.753906 98.726562 C 59.054688 95.761719 60.160156 93.351562 61.429688 90.695312 " fill-opacity="1" fill-rule="nonzero"/><path fill="#a60002" d="M 101.074219 55.886719 L 102.679688 55.886719 C 102.53125 57.214844 102.375 58.539062 102.210938 59.867188 L 102.085938 61.015625 C 101.964844 61.988281 101.789062 62.953125 101.609375 63.917969 L 100.539062 64.453125 Z M 101.074219 55.886719 " fill-opacity="1" fill-rule="nonzero"/><path fill="#701313" d="M 94.644531 343.46875 L 99.464844 344.007812 L 100.539062 346.683594 C 98.121094 346.011719 96.523438 345.128906 94.644531 343.46875 " fill-opacity="1" fill-rule="nonzero"/><path fill="#940506" d="M 237.679688 135.679688 L 238.753906 137.289062 C 238.820312 138.726562 238.820312 138.726562 238.753906 139.964844 L 237.144531 139.964844 L 237.144531 138.359375 L 235.539062 137.824219 Z M 237.679688 135.679688 " fill-opacity="1" fill-rule="nonzero"/><path fill="#87080a" d="M 191.074219 84.804688 L 192.679688 85.339844 C 191.992188 85.96875 191.300781 86.59375 190.605469 87.214844 L 189.4375 88.269531 L 188.394531 89.089844 L 187.324219 89.089844 L 187.859375 86.945312 L 189.464844 86.945312 L 189.464844 85.875 Z M 191.074219 84.804688 " fill-opacity="1" fill-rule="nonzero"/><path fill="#621517" d="M 191.074219 325.796875 C 190.035156 326.234375 188.996094 326.667969 187.960938 327.101562 L 186.207031 327.835938 C 185.164062 328.261719 184.109375 328.652344 183.039062 329.011719 L 183.039062 327.941406 C 184.328125 326.648438 185.628906 326.132812 187.355469 325.664062 C 188.980469 325.253906 189.410156 325.242188 191.074219 325.796875 " fill-opacity="1" fill-rule="nonzero"/><path fill="#a60002" d="M 78.039062 278.671875 L 80.179688 278.671875 C 79.578125 280.261719 78.988281 281.527344 78.039062 282.953125 L 76.429688 282.417969 Z M 78.039062 278.671875 " fill-opacity="1" fill-rule="nonzero"/><path fill="#790e0e" d="M 88.214844 270.101562 L 89.824219 270.636719 C 89.554688 271.910156 89.554688 271.910156 88.753906 273.316406 C 87.324219 273.894531 86 274.113281 84.464844 274.386719 L 85.003906 272.777344 C 85.886719 272.226562 86.777344 271.691406 87.679688 271.171875 Z M 88.214844 270.101562 " fill-opacity="1" fill-rule="nonzero"/><path fill="#87080a" d="M 153.039062 233.148438 L 157.324219 233.148438 L 157.324219 234.21875 L 153.039062 235.828125 Z M 306.253906 205.835938 L 307.324219 205.835938 C 307.191406 206.773438 307.191406 206.773438 306.789062 207.980469 C 305.683594 209.183594 305.683594 209.183594 304.644531 210.121094 L 304.109375 207.980469 L 306.253906 206.90625 Z M 306.253906 205.835938 " fill-opacity="1" fill-rule="nonzero"/><path fill="#940506" d="M 82.859375 55.886719 L 83.058594 56.921875 L 83.394531 58.027344 L 84.464844 58.5625 C 83.0625 59.714844 81.980469 60.382812 80.179688 60.703125 C 80.984375 59.039062 81.894531 57.464844 82.859375 55.886719 " fill-opacity="1" fill-rule="nonzero"/><path fill="#a60002" d="M 125.179688 32.320312 L 124.109375 34.464844 L 119.824219 34.464844 C 121.519531 32.605469 122.613281 32.320312 125.179688 32.320312 " fill-opacity="1" fill-rule="nonzero"/><path fill="#701313" d="M 178.753906 329.011719 L 183.039062 329.011719 C 181.507812 330.257812 180.070312 331.019531 178.214844 331.6875 Z M 178.753906 329.011719 " fill-opacity="1" fill-rule="nonzero"/><path fill="#940506" d="M 52.859375 300.089844 L 54.464844 300.089844 L 55.539062 304.375 L 53.929688 304.375 C 53.257812 302.820312 52.859375 301.808594 52.859375 300.089844 " fill-opacity="1" fill-rule="nonzero"/><path fill="#87080a" d="M 83.929688 274.386719 L 84.464844 275.992188 C 83.597656 276.90625 82.703125 277.800781 81.789062 278.671875 L 80.714844 278.671875 C 80.816406 277.433594 80.816406 277.433594 81.253906 275.992188 C 82.625 275.023438 82.625 275.023438 83.929688 274.386719 " fill-opacity="1" fill-rule="nonzero"/><path fill="#790e0e" d="M 175.539062 331.152344 L 178.214844 331.6875 C 176.835938 333.105469 175.582031 334.335938 173.929688 335.4375 C 174.222656 333.628906 174.496094 332.714844 175.539062 331.152344 " fill-opacity="1" fill-rule="nonzero"/><path fill="#701313" d="M 73.753906 326.332031 L 74.824219 326.332031 L 74.824219 330.082031 L 71.609375 327.941406 L 73.753906 327.402344 Z M 73.753906 326.332031 " fill-opacity="1" fill-rule="nonzero"/><path fill="#87080a" d="M 67.324219 323.121094 L 68.160156 323.554688 C 69.820312 324.363281 71.515625 325.078125 73.214844 325.796875 L 71.609375 326.332031 L 71.074219 327.402344 C 70.445312 326.792969 69.820312 326.179688 69.199219 325.5625 L 68.144531 324.527344 L 67.324219 323.65625 Z M 67.324219 323.121094 " fill-opacity="1" fill-rule="nonzero"/><path fill="#940506" d="M 97.324219 78.378906 L 98.394531 78.378906 L 98.394531 81.589844 L 96.253906 81.589844 C 96.414062 80.695312 96.59375 79.800781 96.789062 78.914062 Z M 97.324219 78.378906 " fill-opacity="1" fill-rule="nonzero"/><path fill="#87080a" d="M 243.574219 125.503906 L 244.109375 125.503906 C 244.210938 127.28125 244.210938 127.28125 244.109375 129.253906 C 243.304688 130.292969 243.304688 130.292969 242.503906 130.859375 L 241.429688 130.324219 Z M 106.964844 252.964844 C 108.105469 253.199219 108.105469 253.199219 109.109375 253.5 L 108.039062 255.640625 L 105.894531 255.105469 L 105.894531 253.5 Z M 106.964844 252.964844 " fill-opacity="1" fill-rule="nonzero"/><path fill="#701313" d="M 81.789062 330.082031 L 84.464844 330.082031 L 84.464844 332.222656 L 81.789062 331.6875 Z M 81.789062 330.082031 " fill-opacity="1" fill-rule="nonzero"/><path fill="#87080a" d="M 196.964844 81.589844 L 198.574219 82.125 C 197.792969 82.574219 197.011719 83.023438 196.230469 83.464844 L 194.910156 84.21875 C 193.753906 84.804688 193.753906 84.804688 192.679688 84.804688 L 193.214844 83.199219 C 195.023438 82.261719 195.023438 82.261719 196.964844 81.589844 " fill-opacity="1" fill-rule="nonzero"/><path fill="#a60002" d="M 96.253906 44.101562 L 97.859375 44.101562 L 97.859375 47.316406 L 96.253906 47.316406 Z M 96.253906 44.101562 " fill-opacity="1" fill-rule="nonzero"/><path fill="#940506" d="M 90.894531 266.886719 L 93.039062 266.886719 L 93.039062 267.960938 L 90.894531 268.496094 L 90.894531 270.101562 L 89.824219 270.101562 Z M 308.929688 201.550781 L 310.539062 202.085938 L 307.859375 205.835938 L 307.324219 203.695312 L 308.929688 203.160156 Z M 98.394531 62.3125 L 100.539062 63.382812 L 100.539062 64.988281 L 98.394531 65.523438 Z M 98.394531 62.3125 " fill-opacity="1" fill-rule="nonzero"/><path fill="#790e0e" d="M 123.039062 246.003906 L 123.039062 247.609375 L 118.753906 248.144531 L 118.753906 247.074219 C 121.832031 246.003906 121.832031 246.003906 123.039062 246.003906 " fill-opacity="1" fill-rule="nonzero"/><path fill="#940506" d="M 334.644531 184.414062 L 336.789062 184.414062 L 336.789062 188.164062 L 336.621094 187.125 L 336.253906 186.019531 L 334.644531 185.484375 Z M 245.714844 92.835938 L 247.324219 92.835938 L 247.324219 95.515625 L 245.714844 95.515625 Z M 245.714844 92.835938 " fill-opacity="1" fill-rule="nonzero"/><path fill="#701313" d="M 169.644531 338.652344 L 171.253906 338.652344 L 170.179688 341.328125 L 169.109375 341.328125 Z M 169.644531 338.652344 " fill-opacity="1" fill-rule="nonzero"/><path fill="#790e0e" d="M 319.109375 43.03125 L 322.859375 44.636719 L 322.859375 45.175781 L 319.109375 44.636719 Z M 319.109375 43.03125 " fill-opacity="1" fill-rule="nonzero"/><path fill="#87080a" d="M 88.753906 338.652344 L 91.429688 338.652344 L 90.894531 340.257812 L 88.753906 339.722656 Z M 88.753906 338.652344 " fill-opacity="1" fill-rule="nonzero"/><path fill="#940506" d="M 59.289062 95.515625 L 60.894531 96.050781 L 60.359375 97.65625 L 59.289062 97.65625 L 58.753906 98.726562 Z M 63.574219 87.480469 L 64.109375 87.480469 L 64.109375 90.160156 L 61.964844 90.695312 Z M 63.574219 87.480469 " fill-opacity="1" fill-rule="nonzero"/><path fill="#621517" d="M 94.644531 343.46875 L 97.859375 344.007812 L 98.394531 345.613281 C 96.832031 345.039062 95.835938 344.660156 94.644531 343.46875 " fill-opacity="1" fill-rule="nonzero"/><path fill="#940506" d="M 239.289062 91.230469 L 241.964844 91.230469 L 241.429688 93.371094 L 239.289062 92.300781 Z M 239.289062 91.230469 " fill-opacity="1" fill-rule="nonzero"/><path fill="#470400" d="M 100.003906 40.890625 L 100.539062 40.890625 L 100.539062 44.101562 L 99.464844 44.101562 C 99.132812 43.097656 99.132812 43.097656 98.929688 41.960938 Z M 100.003906 40.890625 " fill-opacity="1" fill-rule="nonzero"/><path fill="#87080a" d="M 101.609375 38.746094 C 102.714844 38.980469 102.714844 38.980469 103.753906 39.285156 L 101.609375 40.890625 L 101.074219 39.285156 Z M 108.039062 348.824219 L 110.179688 348.824219 L 110.179688 350.433594 L 108.039062 349.898438 Z M 108.039062 348.824219 " fill-opacity="1" fill-rule="nonzero"/><path fill="#940506" d="M 78.574219 278.671875 L 80.179688 278.671875 L 79.109375 281.347656 L 78.574219 281.347656 Z M 316.429688 195.125 L 318.574219 195.660156 L 315.894531 196.730469 Z M 316.429688 195.125 " fill-opacity="1" fill-rule="nonzero"/><path fill="#a60002" d="M 235.539062 138.359375 L 237.144531 138.359375 L 236.609375 140.5 L 235.539062 139.964844 Z M 237.144531 85.875 L 238.753906 86.410156 L 238.753906 88.015625 L 237.144531 87.480469 Z M 237.144531 85.875 " fill-opacity="1" fill-rule="nonzero"/><path fill="#940506" d="M 228.574219 146.390625 L 230.179688 146.390625 L 230.179688 147.996094 L 228.574219 147.996094 Z M 187.324219 81.589844 L 188.929688 81.589844 L 188.929688 83.199219 L 187.324219 83.199219 Z M 237.679688 89.089844 L 239.824219 89.625 L 238.753906 91.230469 Z M 237.679688 89.089844 " fill-opacity="1" fill-rule="nonzero"/></svg>