<svg width="600" height="600" viewBox="0 0 600 600" fill="none" xmlns="http://www.w3.org/2000/svg">
<path d="M197 263V390.5" stroke="#6F0E0E" stroke-width="5"/>
<path fill-rule="evenodd" clip-rule="evenodd" d="M198.129 103C243.605 76.911 299.244 70.3478 442.629 70C441.129 108 469.629 123.5 490.128 122V298C456.111 298.872 442.37 322.249 442.629 349C395.58 349.026 355.293 350.835 321.129 354.468C320.863 354.497 320.598 354.525 320.333 354.553L320.098 354.579C262.791 360.758 222.817 372.113 197.129 388.852L198.129 103ZM161.079 473.096C133.807 438.989 124.415 390.319 123.129 330C120.472 205.368 159.49 126.526 194.11 105.5L193.129 391.585C165.349 411.488 156.175 438.616 161.079 473.096ZM338.5 251C364.734 251 386 229.734 386 203.5C386 177.266 364.734 156 338.5 156C312.266 156 291 177.266 291 203.5C291 229.734 312.266 251 338.5 251Z" fill="#A50000"/>
<path d="M442.629 70L443.128 70.0197L443.149 69.4987L442.627 69.5L442.629 70ZM198.129 103L197.88 102.566L197.63 102.71L197.629 102.998L198.129 103ZM490.128 122H490.628V121.462L490.092 121.501L490.128 122ZM490.128 298L490.141 298.5L490.628 298.487V298H490.128ZM442.629 349L442.629 349.5L443.133 349.5L443.129 348.995L442.629 349ZM321.129 354.468L321.076 353.971L321.076 353.971L321.129 354.468ZM320.333 354.553L320.279 354.056L320.279 354.056L320.333 354.553ZM320.098 354.579L320.044 354.082L320.044 354.082L320.098 354.579ZM197.129 388.852L196.629 388.851L196.625 389.777L197.402 389.271L197.129 388.852ZM123.129 330L122.629 330.011L123.129 330ZM161.079 473.096L160.688 473.409L161.831 474.838L161.574 473.026L161.079 473.096ZM194.11 105.5L194.61 105.502L194.613 104.609L193.85 105.073L194.11 105.5ZM193.129 391.585L193.42 391.991L193.628 391.842L193.629 391.586L193.129 391.585ZM161.079 473.096L161.469 472.784L161.079 473.096ZM442.627 69.5C299.268 69.8477 243.49 76.4004 197.88 102.566L198.377 103.434C243.72 77.4216 299.22 70.8478 442.63 70.5L442.627 69.5ZM490.092 121.501C479.972 122.242 467.856 118.784 458.461 110.439C449.08 102.107 442.384 88.8797 443.128 70.0197L442.129 69.9803C441.373 89.1203 448.178 102.643 457.797 111.186C467.401 119.716 479.785 123.258 490.165 122.499L490.092 121.501ZM490.628 298V122H489.628V298H490.628ZM443.129 348.995C443 335.7 446.351 323.294 453.911 314.113C461.46 304.945 473.254 298.933 490.141 298.5L490.116 297.5C472.985 297.939 460.9 304.052 453.139 313.478C445.388 322.891 441.998 335.549 442.129 349.005L443.129 348.995ZM321.182 354.966C355.323 351.334 395.592 349.526 442.629 349.5L442.628 348.5C395.568 348.526 355.263 350.335 321.076 353.971L321.182 354.966ZM320.386 355.051C320.651 355.022 320.916 354.994 321.182 354.966L321.076 353.971C320.81 353.999 320.545 354.028 320.279 354.056L320.386 355.051ZM320.151 355.076L320.386 355.051L320.279 354.056L320.044 354.082L320.151 355.076ZM197.402 389.271C222.99 372.597 262.869 361.253 320.151 355.076L320.044 354.082C262.713 360.264 222.644 371.629 196.856 388.433L197.402 389.271ZM197.629 102.998L196.629 388.851L197.629 388.854L198.629 103.002L197.629 102.998ZM122.629 330.011C123.915 390.354 133.309 439.166 160.688 473.409L161.469 472.784C134.305 438.811 124.914 390.285 123.628 329.989L122.629 330.011ZM193.85 105.073C176.399 115.672 157.937 140.764 144.17 178.727C130.396 216.711 121.299 267.642 122.629 330.011L123.628 329.989C122.301 267.726 131.384 216.92 145.11 179.068C158.844 141.197 177.201 116.355 194.369 105.927L193.85 105.073ZM193.629 391.586L194.61 105.502L193.61 105.498L192.629 391.583L193.629 391.586ZM161.574 473.026C159.13 455.846 160.199 440.533 165.315 427.052C170.429 413.575 179.6 401.893 193.42 391.991L192.837 391.178C178.878 401.18 169.572 413.014 164.38 426.697C159.189 440.375 158.123 455.867 160.584 473.167L161.574 473.026ZM385.5 203.5C385.5 229.457 364.457 250.5 338.5 250.5V251.5C365.01 251.5 386.5 230.01 386.5 203.5H385.5ZM338.5 156.5C364.457 156.5 385.5 177.543 385.5 203.5H386.5C386.5 176.99 365.01 155.5 338.5 155.5V156.5ZM291.5 203.5C291.5 177.543 312.543 156.5 338.5 156.5V155.5C311.99 155.5 290.5 176.99 290.5 203.5H291.5ZM338.5 250.5C312.543 250.5 291.5 229.457 291.5 203.5H290.5C290.5 230.01 311.99 251.5 338.5 251.5V250.5ZM193.42 391.991C194.706 391.069 196.033 390.163 197.402 389.271L196.856 388.433C195.476 389.333 194.136 390.248 192.837 391.178L193.42 391.991ZM320.151 355.076C337.322 353.224 367.937 351.83 394.275 350.899C407.44 350.433 419.532 350.083 428.332 349.85C432.732 349.733 436.309 349.646 438.786 349.588C440.024 349.558 440.988 349.536 441.641 349.522C441.968 349.514 442.218 349.509 442.386 349.505C442.469 349.504 442.533 349.502 442.575 349.501C442.597 349.501 442.613 349.5 442.623 349.5C442.629 349.5 442.633 349.5 442.635 349.5C442.637 349.5 442.638 349.5 442.638 349.5C442.639 349.5 442.639 349.5 442.629 349C442.618 348.5 442.618 348.5 442.617 348.5C442.616 348.5 442.615 348.5 442.614 348.5C442.611 348.5 442.607 348.5 442.602 348.5C442.591 348.501 442.575 348.501 442.554 348.501C442.511 348.502 442.448 348.504 442.364 348.506C442.196 348.509 441.946 348.515 441.619 348.522C440.965 348.537 440.001 348.559 438.762 348.588C436.284 348.646 432.706 348.734 428.305 348.85C419.503 349.084 407.409 349.434 394.24 349.899C367.908 350.831 337.257 352.226 320.044 354.082L320.151 355.076ZM160.688 473.409C183.781 502.29 219.609 520.735 273.942 527.058L274.058 526.064C219.901 519.762 184.35 501.401 161.469 472.784L160.688 473.409ZM122.629 330.011C123.915 390.354 133.309 439.166 160.688 473.409L161.469 472.784C134.305 438.811 124.914 390.285 123.628 329.989L122.629 330.011Z" fill="#A50000"/>
<path d="M195 105L194 392.5" stroke="#7D0F0F" stroke-width="2"/>
<path d="M321.243 382.923V355C320.899 355.036 320.555 355.073 320.212 355.11C262.929 361.265 222.971 372.576 197.293 389.251C195.919 390.143 194.587 391.05 193.295 391.973C165.526 411.799 156.356 438.822 161.258 473.169C190.499 407.29 227.838 389.564 321.243 382.923Z" fill="#6F0E0E"/>
<path d="M321.243 382.923C227.838 389.564 190.499 407.29 161.258 473.169C184.281 501.863 220.808 520.747 275.211 527C275.211 493.5 291.704 476.068 322 476.068L321.243 382.923Z" fill="#7D0F0F"/>
<path d="M321.243 382.923V355C320.899 355.036 320.555 355.073 320.212 355.11C262.929 361.265 222.971 372.576 197.293 389.251C195.919 390.143 194.587 391.05 193.295 391.973C165.526 411.799 156.356 438.822 161.258 473.169M321.243 382.923C227.838 389.564 190.499 407.29 161.258 473.169M321.243 382.923L322 476.068C291.704 476.068 275.211 493.5 275.211 527C220.808 520.747 184.281 501.863 161.258 473.169" stroke="#6F0E0E"/>
<path d="M192 121L202 116" stroke="#A50000" stroke-width="5"/>
<path d="M192 139L202 134" stroke="#A50000" stroke-width="5"/>
<path d="M191 157L201 152" stroke="#A50000" stroke-width="5"/>
<path d="M191 175L201 170" stroke="#A50000" stroke-width="5"/>
<path d="M190 193L200 188" stroke="#A50000" stroke-width="5"/>
<path d="M190 211L200 206" stroke="#A50000" stroke-width="5"/>
<path d="M190 229L200 224" stroke="#A50000" stroke-width="5"/>
<path d="M190 247L200 242" stroke="#A50000" stroke-width="5"/>
<path d="M190 265L200 260" stroke="#A50000" stroke-width="5"/>
<path d="M190 283L200 278" stroke="#A50000" stroke-width="5"/>
<path d="M190 301L200 296" stroke="#A50000" stroke-width="5"/>
<path d="M190 319L200 314" stroke="#A50000" stroke-width="5"/>
<path d="M190 337L200 332" stroke="#A50000" stroke-width="5"/>
<path d="M190 355L200 350" stroke="#A50000" stroke-width="5"/>
<path d="M190 372L200 367" stroke="#A50000" stroke-width="5"/>
<path fill-rule="evenodd" clip-rule="evenodd" d="M340 156.023C314.461 156.815 294 177.768 294 203.5C294 229.232 314.461 250.185 340 250.977C339.502 250.992 339.002 251 338.5 251C312.266 251 291 229.734 291 203.5C291 177.266 312.266 156 338.5 156C339.002 156 339.502 156.008 340 156.023Z" fill="#7D0F0F"/>
</svg>
