<svg width="500" height="500" viewBox="0 0 500 500" fill="none" xmlns="http://www.w3.org/2000/svg">
<path fill-rule="evenodd" clip-rule="evenodd" d="M0 250C0 111.929 111.929 0 250 0C388.071 0 500 111.929 500 250H0Z" fill="#F2CC87"/>
<path fill-rule="evenodd" clip-rule="evenodd" d="M0 250C0 388.071 111.929 500 250 500C388.071 500 500 388.071 500 250H0Z" fill="#C68208"/>
<path fill-rule="evenodd" clip-rule="evenodd" d="M75 250C75 250 75 250 75 250C75 153.35 153.35 75 250 75C346.65 75 425 153.35 425 250C425 250 425 250 425 250H75Z" fill="#C68208"/>
<path fill-rule="evenodd" clip-rule="evenodd" d="M75 250C75 250 75 250 75 250C75 346.65 153.35 425 250 425C346.65 425 425 346.65 425 250C425 250 425 250 425 250H75Z" fill="#F2CC87"/>
<path fill-rule="evenodd" clip-rule="evenodd" d="M250 490C382.548 490 490 382.548 490 250C490 117.452 382.548 10 250 10C117.452 10 10 117.452 10 250C10 382.548 117.452 490 250 490ZM250 418.511C343.066 418.511 418.51 343.066 418.51 250C418.51 156.934 343.066 81.4894 250 81.4894C156.934 81.4894 81.4892 156.934 81.4892 250C81.4892 343.066 156.934 418.511 250 418.511Z" fill="#EBB923"/>
<path fill-rule="evenodd" clip-rule="evenodd" d="M361.974 25.7398L150.704 478.81C124.09 467.312 99.8699 451.322 79 431.796L279.883 1C309.094 4.5074 336.755 13.0519 361.974 25.7398Z" fill="white" fill-opacity="0.25"/>
<path fill-rule="evenodd" clip-rule="evenodd" d="M227.315 0.32251L43.9718 393.503C38.9427 386.382 34.2765 378.986 30 371.343L201.362 3.85608C209.868 2.2394 218.527 1.05368 227.315 0.32251Z" fill="#FFF3F3" fill-opacity="0.25"/>
<circle cx="250" cy="250" r="160" fill="#E1A624"/>
<g filter="url(#filter0_d_110_599)">
<path fill-rule="evenodd" clip-rule="evenodd" d="M193.881 149.078C217.417 135.577 246.212 132.18 320.417 132C319.641 151.666 334.391 159.688 345 158.912V249.997C327.395 250.448 320.283 262.546 320.417 276.391C296.068 276.405 275.219 277.34 257.538 279.221L257.322 279.244L257.004 279.278C227.346 282.476 206.658 288.352 193.364 297.016L193.881 149.078ZM174.707 340.614C160.593 322.963 155.732 297.775 155.067 266.558C153.691 202.057 173.885 161.254 191.801 150.372L191.294 298.43C176.917 308.73 172.169 322.77 174.707 340.614ZM266.528 225.673C280.104 225.673 291.11 214.667 291.11 201.09C291.11 187.514 280.104 176.508 266.528 176.508C252.951 176.508 241.945 187.514 241.945 201.09C241.945 214.667 252.951 225.673 266.528 225.673Z" fill="#F1CC5D"/>
<path d="M320.417 132L320.917 132.02L320.938 131.499L320.416 131.5L320.417 132ZM193.881 149.078L193.632 148.645L193.382 148.788L193.381 149.077L193.881 149.078ZM345 158.912H345.5V158.374L344.964 158.413L345 158.912ZM345 249.997L345.013 250.497L345.5 250.484V249.997H345ZM320.417 276.391L320.418 276.891L320.922 276.891L320.917 276.386L320.417 276.391ZM257.538 279.221L257.485 278.724L257.485 278.724L257.538 279.221ZM257.322 279.244L257.268 278.747L257.268 278.747L257.322 279.244ZM257.004 279.278L256.951 278.781L256.95 278.781L257.004 279.278ZM193.364 297.016L192.864 297.014L192.861 297.94L193.637 297.435L193.364 297.016ZM155.067 266.558L154.567 266.568L155.067 266.558ZM174.707 340.614L174.316 340.927L175.46 342.357L175.202 340.544L174.707 340.614ZM191.801 150.372L192.301 150.374L192.304 149.482L191.542 149.945L191.801 150.372ZM191.294 298.43L191.585 298.836L191.793 298.687L191.794 298.431L191.294 298.43ZM174.707 340.614L175.097 340.302L174.707 340.614ZM320.416 131.5C246.235 131.68 217.302 135.066 193.632 148.645L194.13 149.512C217.531 136.087 246.188 132.68 320.419 132.5L320.416 131.5ZM344.964 158.413C339.789 158.792 333.583 157.022 328.771 152.748C323.974 148.487 320.534 141.713 320.917 132.02L319.918 131.98C319.524 141.953 323.072 149.023 328.107 153.496C333.128 157.955 339.602 159.808 345.036 159.41L344.964 158.413ZM345.5 249.997V158.912H344.5V249.997H345.5ZM320.917 276.386C320.851 269.544 322.576 263.185 326.443 258.489C330.298 253.806 336.332 250.719 345.013 250.497L344.987 249.497C336.063 249.726 329.738 252.913 325.671 257.854C321.613 262.781 319.85 269.393 319.917 276.396L320.917 276.386ZM257.59 279.718C275.249 277.84 296.08 276.905 320.418 276.891L320.417 275.891C296.057 275.905 275.188 276.841 257.485 278.724L257.59 279.718ZM257.375 279.741L257.591 279.718L257.485 278.724L257.268 278.747L257.375 279.741ZM257.057 279.775L257.375 279.741L257.268 278.747L256.951 278.781L257.057 279.775ZM193.637 297.435C206.831 288.836 227.424 282.971 257.058 279.775L256.95 278.781C227.268 281.982 206.485 287.868 193.091 296.597L193.637 297.435ZM193.381 149.077L192.864 297.014L193.864 297.017L194.381 149.08L193.381 149.077ZM154.567 266.568C155.233 297.809 160.095 323.14 174.316 340.927L175.097 340.302C161.091 322.785 156.231 297.74 155.566 266.547L154.567 266.568ZM191.542 149.945C182.442 155.472 172.862 168.518 165.729 188.187C158.59 207.877 153.878 234.265 154.567 266.568L155.566 266.547C154.88 234.349 159.577 208.086 166.67 188.528C173.769 168.951 183.244 156.155 192.061 150.8L191.542 149.945ZM191.794 298.431L192.301 150.374L191.301 150.371L190.794 298.428L191.794 298.431ZM175.202 340.544C173.941 331.682 174.495 323.8 177.125 316.87C179.752 309.945 184.466 303.936 191.585 298.836L191.002 298.023C183.744 303.224 178.896 309.385 176.19 316.516C173.486 323.642 172.934 331.702 174.212 340.685L175.202 340.544ZM290.61 201.09C290.61 214.391 279.828 225.173 266.528 225.173V226.173C280.381 226.173 291.61 214.943 291.61 201.09H290.61ZM266.528 177.008C279.828 177.008 290.61 187.79 290.61 201.09H291.61C291.61 187.238 280.381 176.008 266.528 176.008V177.008ZM242.445 201.09C242.445 187.79 253.227 177.008 266.528 177.008V176.008C252.675 176.008 241.445 187.238 241.445 201.09H242.445ZM266.528 225.173C253.227 225.173 242.445 214.391 242.445 201.09H241.445C241.445 214.943 252.675 226.173 266.528 226.173V225.173ZM191.585 298.836C192.248 298.361 192.932 297.894 193.637 297.435L193.091 296.597C192.374 297.064 191.678 297.54 191.002 298.023L191.585 298.836ZM257.058 279.775C265.934 278.818 281.769 278.097 295.401 277.615C302.214 277.374 308.471 277.193 313.025 277.072C315.302 277.012 317.153 276.966 318.434 276.936C319.075 276.921 319.574 276.91 319.912 276.902C320.081 276.898 320.21 276.895 320.297 276.894C320.34 276.893 320.373 276.892 320.395 276.891C320.406 276.891 320.414 276.891 320.42 276.891C320.422 276.891 320.425 276.891 320.426 276.891C320.427 276.891 320.427 276.891 320.427 276.891C320.428 276.891 320.428 276.891 320.417 276.391C320.407 275.891 320.407 275.891 320.406 275.891C320.406 275.891 320.405 275.891 320.405 275.891C320.403 275.891 320.401 275.891 320.398 275.891C320.393 275.891 320.385 275.891 320.373 275.892C320.351 275.892 320.319 275.893 320.275 275.894C320.188 275.896 320.059 275.899 319.89 275.902C319.551 275.91 319.052 275.921 318.411 275.936C317.128 275.967 315.276 276.012 312.998 276.072C308.442 276.193 302.182 276.374 295.366 276.615C281.74 277.097 265.869 277.819 256.95 278.781L257.058 279.775ZM174.316 340.927C186.318 355.937 204.928 365.503 233.089 368.781L233.205 367.787C205.22 364.531 186.888 355.049 175.097 340.302L174.316 340.927ZM154.567 266.568C155.233 297.809 160.095 323.14 174.316 340.927L175.097 340.302C161.091 322.785 156.231 297.74 155.566 266.547L154.567 266.568Z" fill="#F1CC5D"/>
<path d="M192.262 150.114L191.745 298.903" stroke="#E8C24F"/>
<path d="M257.597 293.947V279.496C257.419 279.515 257.241 279.534 257.064 279.553C227.418 282.739 206.738 288.592 193.449 297.222C192.738 297.683 192.049 298.153 191.38 298.631C177.009 308.891 172.263 322.877 174.8 340.652C189.933 306.558 209.257 297.384 257.597 293.947Z" fill="#E2BD4D"/>
<path d="M257.597 293.947C209.257 297.384 189.933 306.558 174.8 340.652C186.715 355.502 205.619 365.275 233.774 368.511C233.774 351.174 242.31 342.153 257.989 342.153L257.597 293.947Z" fill="#E8C24F"/>
<path d="M257.597 293.947V279.496C257.419 279.515 257.241 279.534 257.064 279.553C227.418 282.739 206.738 288.592 193.449 297.222C192.738 297.683 192.049 298.153 191.38 298.631C177.009 308.891 172.263 322.877 174.8 340.652M257.597 293.947C209.257 297.384 189.933 306.558 174.8 340.652M257.597 293.947L257.989 342.153C242.31 342.153 233.774 351.174 233.774 368.511C205.619 365.275 186.715 355.502 174.8 340.652" stroke="#E8C24F"/>
<path d="M190.71 158.394L195.885 155.806" stroke="#F1CC5D" stroke-width="5"/>
<path d="M190.71 167.709L195.885 165.122" stroke="#F1CC5D" stroke-width="5"/>
<path d="M190.192 177.025L195.368 174.438" stroke="#F1CC5D" stroke-width="5"/>
<path d="M190.192 186.341L195.368 183.753" stroke="#F1CC5D" stroke-width="5"/>
<path d="M189.674 195.656L194.85 193.069" stroke="#F1CC5D" stroke-width="5"/>
<path d="M189.674 204.972L194.85 202.384" stroke="#F1CC5D" stroke-width="5"/>
<path d="M189.674 214.287L194.85 211.7" stroke="#F1CC5D" stroke-width="5"/>
<path d="M189.674 223.603L194.85 221.015" stroke="#F1CC5D" stroke-width="5"/>
<path d="M189.674 232.918L194.85 230.331" stroke="#F1CC5D" stroke-width="5"/>
<path d="M189.674 242.234L194.85 239.646" stroke="#F1CC5D" stroke-width="5"/>
<path d="M189.674 251.55L194.85 248.962" stroke="#F1CC5D" stroke-width="5"/>
<path d="M189.674 260.865L194.85 258.277" stroke="#F1CC5D" stroke-width="5"/>
<path d="M189.674 270.18L194.85 267.593" stroke="#F1CC5D" stroke-width="5"/>
<path d="M189.674 279.496L194.85 276.908" stroke="#F1CC5D" stroke-width="5"/>
<path d="M189.674 288.294L194.85 285.706" stroke="#F1CC5D" stroke-width="5"/>
</g>
<path d="M365.5 106C365.5 106 365.384 125.103 372.182 132.788C379.259 140.788 397 140 397 140C397 140 379.259 139.212 372.182 147.212C365.384 154.897 365.5 174 365.5 174C365.5 174 365.616 154.897 358.818 147.212C351.741 139.212 334 140 334 140C334 140 351.741 140.788 358.818 132.788C365.616 125.103 365.5 106 365.5 106Z" fill="white" fill-opacity="0.8"/>
<path d="M118 272C118 272 120.401 279.088 123.657 282.343C126.912 285.599 134 288 134 288C134 288 126.912 290.401 123.657 293.657C120.401 296.912 118 304 118 304C118 304 115.599 296.912 112.343 293.657C109.088 290.401 102 288 102 288C102 288 109.088 285.599 112.343 282.343C115.599 279.088 118 272 118 272Z" fill="white" fill-opacity="0.8"/>
<path d="M137.5 308C137.5 308 139.376 313.537 141.919 316.081C144.463 318.624 150 320.5 150 320.5C150 320.5 144.463 322.376 141.919 324.919C139.376 327.463 137.5 333 137.5 333C137.5 333 135.624 327.463 133.081 324.919C130.537 322.376 125 320.5 125 320.5C125 320.5 130.537 318.624 133.081 316.081C135.624 313.537 137.5 308 137.5 308Z" fill="white" fill-opacity="0.8"/>
<defs>
<filter id="filter0_d_110_599" x="150.5" y="131.499" width="197" height="243.573" filterUnits="userSpaceOnUse" color-interpolation-filters="sRGB">
<feFlood flood-opacity="0" result="BackgroundImageFix"/>
<feColorMatrix in="SourceAlpha" type="matrix" values="0 0 0 0 0 0 0 0 0 0 0 0 0 0 0 0 0 0 127 0" result="hardAlpha"/>
<feOffset dx="-1" dy="3"/>
<feGaussianBlur stdDeviation="1.5"/>
<feComposite in2="hardAlpha" operator="out"/>
<feColorMatrix type="matrix" values="0 0 0 0 0 0 0 0 0 0 0 0 0 0 0 0 0 0 0.25 0"/>
<feBlend mode="normal" in2="BackgroundImageFix" result="effect1_dropShadow_110_599"/>
<feBlend mode="normal" in="SourceGraphic" in2="effect1_dropShadow_110_599" result="shape"/>
</filter>
</defs>
</svg>
